<?xml version="1.0" encoding="UTF-8" standalone="no"?>
<svg width="45px" height="75px" viewBox="0 0 45 75" version="1.1" xmlns="http://www.w3.org/2000/svg" xmlns:xlink="http://www.w3.org/1999/xlink">
    <!-- Generator: sketchtool 47.1 (45422) - http://www.bohemiancoding.com/sketch -->
    <title>4468926D-8EB5-41CD-8D17-AC6A2F212C40</title>
    <desc>Created with sketchtool.</desc>
    <defs>
        <polygon id="path-1" points="0.8004 0.159 9.9224 0.159 9.9224 8.20749517 0.8004 8.20749517 0.8004 0.159"></polygon>
    </defs>
    <g id="Page-1" stroke="none" stroke-width="1" fill="none" fill-rule="evenodd">
        <g id="Cs12_2-3_Confirmation_photo" transform="translate(-42.000000, -15.000000)">
            <g id="charrito_green" transform="translate(42.000000, 14.840800)">
                <path d="M38.582,30.3052 C38.561,30.5572 38.341,30.7462 38.087,30.7262 C37.835,30.7062 37.646,30.4852 37.666,30.2322 C37.687,29.9792 37.908,29.7912 38.161,29.8112 C38.413,29.8312 38.602,30.0522 38.582,30.3052" id="Fill-54" fill="#ED7722"></path>
                <polygon id="Fill-56" fill="#ED7722" points="38.9297 30.9702 38.7687 31.1212 38.0497 30.3572 38.2107 30.2052"></polygon>
                <path d="M39.5581,29.3882 C39.5381,29.6412 39.3171,29.8292 39.0631,29.8092 C38.8111,29.7892 38.6231,29.5682 38.6421,29.3152 C38.6631,29.0622 38.8841,28.8742 39.1371,28.8942 C39.3901,28.9142 39.5781,29.1352 39.5581,29.3882" id="Fill-58" fill="#ED7722"></path>
                <polygon id="Fill-60" fill="#ED7722" points="39.9063 30.0532 39.7453 30.2042 39.0263 29.4402 39.1873 29.2882"></polygon>
                <path d="M40.4761,28.6113 C40.4561,28.8633 40.2351,29.0523 39.9811,29.0323 C39.7291,29.0123 39.5411,28.7913 39.5601,28.5383 C39.5811,28.2853 39.8021,28.0973 40.0551,28.1173 C40.3081,28.1373 40.4961,28.3583 40.4761,28.6113" id="Fill-62" fill="#ED7722"></path>
                <polygon id="Fill-64" fill="#ED7722" points="40.8242 29.2764 40.6632 29.4274 39.9442 28.6634 40.1052 28.5114"></polygon>
                <path d="M42.1133,33.7285 C41.8603,33.7155 41.6443,33.9115 41.6323,34.1655 C41.6203,34.4175 41.8163,34.6325 42.0683,34.6455 C42.3223,34.6575 42.5373,34.4625 42.5493,34.2095 C42.5623,33.9565 42.3663,33.7405 42.1133,33.7285" id="Fill-66" fill="#ED7722"></path>
                <polygon id="Fill-68" fill="#ED7722" points="41.4985 33.2983 41.3275 33.4383 41.9935 34.2493 42.1655 34.1093"></polygon>
                <path d="M43.1475,32.877 C42.8945,32.865 42.6785,33.06 42.6665,33.314 C42.6545,33.567 42.8495,33.782 43.1025,33.794 C43.3555,33.806 43.5715,33.611 43.5845,33.358 C43.5955,33.105 43.4005,32.89 43.1475,32.877" id="Fill-70" fill="#ED7722"></path>
                <polygon id="Fill-72" fill="#ED7722" points="42.5322 32.4468 42.3612 32.5878 43.0272 33.3978 43.1992 33.2578"></polygon>
                <path d="M44.0352,32.0659 C43.7822,32.0529 43.5672,32.2489 43.5552,32.5029 C43.5422,32.7549 43.7372,32.9699 43.9902,32.9829 C44.2442,32.9949 44.4592,32.7999 44.4722,32.5469 C44.4842,32.2939 44.2882,32.0789 44.0352,32.0659" id="Fill-74" fill="#ED7722"></path>
                <polygon id="Fill-76" fill="#ED7722" points="43.4199 31.6353 43.2489 31.7763 43.9159 32.5863 44.0869 32.4463"></polygon>
                <path d="M17.4048,72.9756 C16.2608,73.0716 14.2118,72.9206 14.3728,74.1556 C14.4258,75.0146 16.6268,75.0696 21.9928,74.6166 C22.6908,74.6926 22.7438,72.9756 21.9928,72.7606 C21.2418,72.5456 17.4048,72.9756 17.4048,72.9756" id="Fill-78" fill="#84221A"></path>
                <path d="M29.5239,72.9756 C30.6679,73.0716 32.7169,72.9206 32.5559,74.1556 C32.5019,75.0146 30.3019,75.0696 24.9359,74.6166 C24.2379,74.6926 24.1849,72.9756 24.9359,72.7606 C25.6869,72.5456 29.5239,72.9756 29.5239,72.9756" id="Fill-80" fill="#84221A"></path>
                <path d="M29.0767,72.458 C29.0767,73.009 28.6267,73.458 28.0767,73.458 L25.7837,73.458 C25.2337,73.458 24.7837,73.009 24.7837,72.458 L24.7837,46.925 C24.7837,46.376 25.2337,45.925 25.7837,45.925 L28.0767,45.925 C28.6267,45.925 29.0767,46.376 29.0767,46.925 L29.0767,72.458 Z" id="Fill-82" fill="#1FA889"></path>
                <path d="M21.9932,72.458 C21.9932,73.009 21.5432,73.458 20.9932,73.458 L18.7002,73.458 C18.1502,73.458 17.7002,73.009 17.7002,72.458 L17.7002,46.925 C17.7002,46.376 18.1502,45.925 18.7002,45.925 L20.9932,45.925 C21.5432,45.925 21.9932,46.376 21.9932,46.925 L21.9932,72.458 Z" id="Fill-84" fill="#1FA889"></path>
                <path d="M16.4102,31.4155 C16.8482,30.6035 17.2342,29.2725 20.4852,29.3325 L26.5532,29.3325 C27.7302,29.3325 28.9982,29.6035 30.2662,31.4155 C31.5342,33.2275 33.5272,36.3965 33.5272,36.3965 C33.7992,36.8495 35.0332,38.3895 33.7082,40.3815 C31.9872,42.4635 25.3762,49.7995 23.5642,49.9815 C21.1192,49.7995 14.5782,41.7275 14.1452,41.2865 C13.7132,40.8445 11.6372,39.0775 13.6072,36.3695 C14.6942,34.5585 16.4102,31.4155 16.4102,31.4155" id="Fill-86" fill="#1FA889"></path>
                <path d="M18.6011,29.8735 C18.6011,29.8735 22.8351,34.1225 23.5411,34.1225 C24.2471,34.1225 28.2491,30.6065 28.6031,30.3235" id="Stroke-88" stroke="#FFFFFF" stroke-linecap="round"></path>
                <path d="M20.0112,29.7544 C20.0112,29.7544 22.9862,32.7414 23.5532,32.7414 C24.1192,32.7414 27.1802,30.0714 27.4642,29.8454" id="Stroke-90" stroke="#EF3030" stroke-linecap="round"></path>
                <path d="M16.894,31.4199 C16.894,31.4199 22.835,37.3419 23.541,37.3419 C24.247,37.3419 29.931,32.5199 30.285,32.2369" id="Stroke-92" stroke="#FFFFFF" stroke-linecap="round"></path>
                <path d="M17.4976,30.4707 C17.4976,30.4707 22.8346,35.7957 23.5406,35.7957 C24.2476,35.7957 29.3276,31.4757 29.6806,31.1927" id="Stroke-94" stroke="#EF3030" stroke-linecap="round"></path>
                <g id="Group-98" transform="translate(13.000000, 0.000000)">
                    <mask id="mask-2" fill="white">
                        <use xlink:href="#path-1"></use>
                    </mask>
                    <g id="Clip-97"></g>
                    <path d="M9.9224,6.2407 C6.6314,0.2607 5.2364,-0.0083 4.2174,0.2067 C1.3194,0.5297 1.0504,5.7877 0.8004,8.0537 C1.6164,8.4477 7.5174,8.1667 9.9224,6.2407" id="Fill-96" fill="#DA6C23" mask="url(#mask-2)"></path>
                </g>
                <path d="M12.7715,16.333 C12.0735,18.563 12.1625,24.906 16.9175,27.12 C21.7515,27.522 28.4985,28.54 29.8815,20.76 C30.3645,18.185 29.8825,12.469 28.9565,12.067 C28.0305,11.664 13.2925,14.669 12.7715,16.333" id="Fill-99" fill="#E5AA9B"></path>
                <path d="M22.3149,22.9575 C25.2529,20.6915 26.7029,24.3935 27.7889,21.4845 C28.1109,26.0165 22.5969,25.6765 22.3149,22.9575" id="Fill-101" fill="#D23D27"></path>
                <path d="M21.9653,23.0913 C18.3563,22.2313 18.5543,26.2013 16.3693,23.9953 C17.9363,28.2593 22.8243,25.6863 21.9653,23.0913" id="Fill-103" fill="#D23D27"></path>
                <path d="M25.8569,42.4404 C24.5159,40.8834 20.1899,37.6294 17.0939,44.6494 C16.6799,45.0164 8.5769,44.4264 7.7179,51.1334 C7.5039,52.7434 8.6849,59.1294 15.3389,60.4714 C18.4059,61.1864 23.3879,58.2704 23.2569,52.3134 C25.9679,51.6904 31.6519,48.0204 27.0909,43.5674 C26.3939,43.0304 25.8569,42.4404 25.8569,42.4404" id="Fill-105" fill="#F29420"></path>
                <path d="M12.2529,50.9463 L17.4049,56.6613" id="Stroke-107" stroke="#D23D27"></path>
                <polygon id="Fill-109" fill="#84221A" points="21.9932 45.7393 23.5412 47.8603 38.9742 33.8783 37.8692 32.7723"></polygon>
                <path d="M38.04,32.9434 C38.04,32.9434 37.164,32.5084 38.146,31.6004 C39.173,30.7034 40.708,29.2944 41.312,28.8104 C41.781,28.4474 44.189,30.7564 43.781,31.4394 C42.848,32.2864 40.875,33.8994 40.875,33.8994 C40.17,34.5044 39.857,34.8604 38.975,33.8784 L38.04,32.9434 Z" id="Fill-111" fill="#84221A"></path>
                <path d="M23.3184,47.8604 C23.3184,49.1654 22.2614,50.2214 20.9564,50.2214 C19.6524,50.2214 18.5944,49.1654 18.5944,47.8604 C18.5944,46.5554 19.6524,45.4994 20.9564,45.4994 C22.2614,45.4994 23.3184,46.5554 23.3184,47.8604" id="Fill-113" fill="#D23D27"></path>
                <path d="M23.3184,47.8604 C23.3184,49.1654 22.2614,50.2214 20.9564,50.2214 C19.6524,50.2214 18.5944,49.1654 18.5944,47.8604 C18.5944,46.5554 19.6524,45.4994 20.9564,45.4994 C22.2614,45.4994 23.3184,46.5554 23.3184,47.8604 Z" id="Stroke-115" stroke="#84221A"></path>
                <path d="M19.8467,61.8115 C19.8467,62.0385 19.6627,62.2215 19.4357,62.2215 C19.2097,62.2215 19.0257,62.0385 19.0257,61.8115 C19.0257,61.5845 19.2097,61.4015 19.4357,61.4015 C19.6627,61.4015 19.8467,61.5845 19.8467,61.8115 Z" id="Stroke-117" stroke="#C61257"></path>
                <path d="M17.7002,61.8115 L19.0252,61.8115" id="Stroke-119" stroke="#C61257"></path>
                <path d="M19.8467,64.7314 C19.8467,64.9584 19.6627,65.1414 19.4357,65.1414 C19.2097,65.1414 19.0257,64.9584 19.0257,64.7314 C19.0257,64.5044 19.2097,64.3214 19.4357,64.3214 C19.6627,64.3214 19.8467,64.5044 19.8467,64.7314 Z" id="Stroke-121" stroke="#C61257"></path>
                <path d="M17.7002,64.7314 L19.0252,64.7314" id="Stroke-123" stroke="#C61257"></path>
                <path d="M19.8467,67.0537 C19.8467,67.2787 19.6627,67.4637 19.4357,67.4637 C19.2097,67.4637 19.0257,67.2787 19.0257,67.0537 C19.0257,66.8247 19.2097,66.6417 19.4357,66.6417 C19.6627,66.6417 19.8467,66.8247 19.8467,67.0537 Z" id="Stroke-125" stroke="#C61257"></path>
                <path d="M17.7002,67.0537 L19.0252,67.0537" id="Stroke-127" stroke="#C61257"></path>
                <path d="M19.8467,69.9014 C19.8467,70.1284 19.6627,70.3114 19.4357,70.3114 C19.2097,70.3114 19.0257,70.1284 19.0257,69.9014 C19.0257,69.6744 19.2097,69.4914 19.4357,69.4914 C19.6627,69.4914 19.8467,69.6744 19.8467,69.9014 Z" id="Stroke-129" stroke="#C61257"></path>
                <path d="M17.7002,69.9014 L19.0252,69.9014" id="Stroke-131" stroke="#C61257"></path>
                <path d="M26.9302,61.8115 C26.9302,62.0385 27.1142,62.2215 27.3412,62.2215 C27.5682,62.2215 27.7512,62.0385 27.7512,61.8115 C27.7512,61.5845 27.5682,61.4015 27.3412,61.4015 C27.1142,61.4015 26.9302,61.5845 26.9302,61.8115 Z" id="Stroke-133" stroke="#C61257"></path>
                <path d="M29.0771,61.8115 L27.7511,61.8115" id="Stroke-135" stroke="#C61257"></path>
                <path d="M26.9302,64.7314 C26.9302,64.9584 27.1142,65.1414 27.3412,65.1414 C27.5682,65.1414 27.7512,64.9584 27.7512,64.7314 C27.7512,64.5044 27.5682,64.3214 27.3412,64.3214 C27.1142,64.3214 26.9302,64.5044 26.9302,64.7314 Z" id="Stroke-137" stroke="#C61257"></path>
                <path d="M29.0771,64.7314 L27.7511,64.7314" id="Stroke-139" stroke="#C61257"></path>
                <path d="M26.9302,67.0537 C26.9302,67.2787 27.1142,67.4637 27.3412,67.4637 C27.5682,67.4637 27.7512,67.2787 27.7512,67.0537 C27.7512,66.8247 27.5682,66.6417 27.3412,66.6417 C27.1142,66.6417 26.9302,66.8247 26.9302,67.0537 Z" id="Stroke-141" stroke="#C61257"></path>
                <path d="M29.0771,67.0537 L27.7511,67.0537" id="Stroke-143" stroke="#C61257"></path>
                <path d="M26.9302,69.9014 C26.9302,70.1284 27.1142,70.3114 27.3412,70.3114 C27.5682,70.3114 27.7512,70.1284 27.7512,69.9014 C27.7512,69.6744 27.5682,69.4914 27.3412,69.4914 C27.1142,69.4914 26.9302,69.6744 26.9302,69.9014 Z" id="Stroke-145" stroke="#C61257"></path>
                <path d="M29.0771,69.9014 L27.7511,69.9014" id="Stroke-147" stroke="#C61257"></path>
                <path d="M0.6348,9.5449 C-0.9752,10.9399 4.7138,18.6679 7.2888,18.2379 C10.1868,18.3449 27.8958,17.4329 36.2678,9.4909 C37.4478,8.0419 36.8548,2.2539 36.1598,2.5679 C32.2428,3.8569 21.8318,7.8809 0.6348,9.5449" id="Fill-149" fill="#FF8F04"></path>
                <path d="M2.0444,12.8638 C2.2834,12.1708 2.5224,11.4768 2.7614,10.7838 C2.4574,10.8238 2.1524,10.8638 1.8474,10.9038 C2.2224,11.6198 2.5974,12.3368 2.9724,13.0528 C3.1474,13.3878 3.6554,13.3688 3.8354,13.0528 L5.1974,10.6578 L4.3344,10.6578 C4.7434,11.3298 5.1514,12.0008 5.5604,12.6728 C5.7474,12.9798 6.2454,13.0148 6.4234,12.6728 C6.8554,11.8448 7.2874,11.0168 7.7184,10.1888 L6.8554,10.1888 C7.2634,10.8458 7.6724,11.5038 8.0814,12.1618 C8.2724,12.4698 8.7604,12.5028 8.9444,12.1618 C9.4104,11.2998 9.8754,10.4378 10.3404,9.5758 L9.4774,9.5758 C9.8864,10.1558 10.2944,10.7348 10.7044,11.3148 C10.9324,11.6378 11.3384,11.6308 11.5674,11.3148 C11.9874,10.7348 12.4074,10.1558 12.8274,9.5758 L11.9644,9.5758 C12.4304,10.2338 12.8974,10.8918 13.3644,11.5498 C13.5614,11.8278 14.0514,11.9178 14.2274,11.5498 C14.6354,10.6988 15.0434,9.8478 15.4504,8.9978 L14.5874,8.9978 C15.0294,9.6098 15.4724,10.2228 15.9154,10.8348 C16.1294,11.1308 16.5754,11.1818 16.7784,10.8348 C17.1654,10.1768 17.5514,9.5188 17.9374,8.8618 L17.1524,8.9628 L18.5484,10.2898 C18.7904,10.5188 19.1554,10.4618 19.3334,10.1888 C19.7424,9.5608 20.1514,8.9338 20.5604,8.3058 L19.7744,8.4068 C20.2514,8.8078 20.7284,9.2088 21.2054,9.6088 C21.4534,9.8178 21.8104,9.7988 21.9904,9.5078 C22.3764,8.8838 22.7624,8.2598 23.1484,7.6358 L22.3634,7.7378 C22.7834,8.1688 23.2034,8.5988 23.6244,9.0308 C23.8624,9.2758 24.2294,9.1878 24.4094,8.9288 C24.8674,8.2708 25.3254,7.6138 25.7824,6.9548 L24.9974,7.0558 C25.4254,7.5068 25.8534,7.9568 26.2804,8.4068 C26.5134,8.6528 26.8914,8.5658 27.0654,8.3058 C27.4974,7.6628 27.9294,7.0198 28.3604,6.3768 L27.4974,6.3768 C27.9174,7.0198 28.3364,7.6628 28.7574,8.3058 C28.9514,8.6028 29.4394,8.6568 29.6204,8.3058 C30.0634,7.4468 30.5064,6.5888 30.9494,5.7298 L30.0864,5.7298 C30.5284,6.3768 30.9714,7.0238 31.4144,7.6698 C31.6024,7.9458 32.1134,8.0418 32.2774,7.6698 C32.6524,6.8198 33.0274,5.9678 33.4014,5.1178 L32.5384,5.1178 C32.9814,5.7418 33.4234,6.3658 33.8664,6.9898 C34.1084,7.3308 34.6564,7.3148 34.7804,6.8698 C35.0074,6.0528 35.2344,5.2368 35.4614,4.4198 C35.1834,4.4928 34.9044,4.5668 34.6264,4.6398 C35.1684,5.0838 35.7094,5.5288 36.2504,5.9718 C36.7444,6.3778 37.4564,5.6748 36.9574,5.2648 C36.4164,4.8218 35.8754,4.3768 35.3334,3.9328 C35.0504,3.7008 34.6064,3.7648 34.4984,4.1538 C34.2704,4.9708 34.0434,5.7878 33.8164,6.6048 C34.1204,6.5648 34.4254,6.5248 34.7304,6.4848 C34.2874,5.8608 33.8444,5.2368 33.4014,4.6128 C33.2104,4.3428 32.7044,4.2368 32.5384,4.6128 C32.1634,5.4638 31.7884,6.3148 31.4144,7.1648 L32.2774,7.1648 C31.8354,6.5188 31.3924,5.8718 30.9494,5.2248 C30.7504,4.9348 30.2694,4.8688 30.0864,5.2248 C29.6434,6.0838 29.2004,6.9428 28.7574,7.8018 L29.6204,7.8018 C29.2004,7.1578 28.7804,6.5148 28.3604,5.8718 C28.1484,5.5468 27.7104,5.5528 27.4974,5.8718 C27.0654,6.5148 26.6334,7.1578 26.2024,7.8018 L26.9874,7.6998 C26.5604,7.2498 26.1324,6.7998 25.7044,6.3488 C25.4684,6.1008 25.0974,6.1948 24.9194,6.4498 C24.4614,7.1088 24.0034,7.7668 23.5454,8.4248 L24.3314,8.3228 C23.9104,7.8918 23.4904,7.4618 23.0704,7.0308 C22.8404,6.7948 22.4524,6.8608 22.2854,7.1318 C21.8984,7.7558 21.5124,8.3788 21.1274,9.0028 L21.9124,8.9018 C21.4354,8.5018 20.9584,8.1008 20.4814,7.6998 C20.2284,7.4878 19.8834,7.5148 19.6964,7.8018 C19.2874,8.4288 18.8784,9.0558 18.4704,9.6838 L19.2554,9.5828 L17.8594,8.2558 C17.6264,8.0338 17.2404,8.0728 17.0744,8.3568 C16.6884,9.0148 16.3014,9.6728 15.9154,10.3298 L16.7784,10.3298 C16.3364,9.7178 15.8934,9.1058 15.4504,8.4928 C15.2514,8.2178 14.7644,8.1228 14.5874,8.4928 C14.1794,9.3438 13.7724,10.1948 13.3644,11.0448 L14.2274,11.0448 C13.7614,10.3868 13.2944,9.7288 12.8274,9.0708 C12.5994,8.7488 12.1934,8.7538 11.9644,9.0708 C11.5444,9.6508 11.1244,10.2298 10.7044,10.8098 L11.5674,10.8098 C11.1584,10.2298 10.7504,9.6508 10.3404,9.0708 C10.1354,8.7798 9.6694,8.7168 9.4774,9.0708 C9.0114,9.9328 8.5464,10.7948 8.0814,11.6568 L8.9444,11.6568 C8.5354,10.9998 8.1274,10.3418 7.7184,9.6838 C7.5294,9.3798 7.0344,9.3398 6.8554,9.6838 C6.4234,10.5118 5.9914,11.3398 5.5604,12.1678 L6.4234,12.1678 C6.0154,11.4968 5.6064,10.8248 5.1974,10.1538 C5.0054,9.8378 4.5234,9.8218 4.3344,10.1538 L2.9724,12.5488 L3.8354,12.5488 C3.4614,11.8318 3.0864,11.1148 2.7114,10.3988 C2.4974,9.9898 1.9294,10.1338 1.7974,10.5178 C1.5584,11.2118 1.3194,11.9048 1.0804,12.5978 C0.8694,13.2098 1.8364,13.4698 2.0444,12.8638" id="Fill-151" fill="#FFB500"></path>
                <path d="M13.8682,52.7373 L38.0402,32.9433" id="Fill-153" fill="#E6E6E6"></path>
                <path d="M14.2246,53.1338 L38.2316,33.1358" id="Fill-155" fill="#E6E6E6"></path>
                <path d="M14.5771,53.5244 L38.4071,33.3104" id="Fill-157" fill="#E6E6E6"></path>
                <path d="M14.958,53.9463 L38.583,33.4863" id="Fill-159" fill="#E6E6E6"></path>
                <path d="M15.3052,54.333 L38.7392,33.642" id="Fill-161" fill="#E6E6E6"></path>
                <path d="M15.6152,54.6748 L38.9002,33.8028" id="Fill-163" fill="#E6E6E6"></path>
                <path d="M12.9668,39.6553 C12.1498,42.1063 10.6428,45.1513 12.0918,46.5183 C13.5408,47.8873 16.5198,50.7043 17.2438,51.1063 C17.9678,51.5093 19.2288,52.3393 19.8598,52.1733 C20.5438,51.9933 21.9728,50.4643 19.7998,49.4173 C19.3968,49.1753 18.8938,49.1553 17.8068,48.8933 C17.2838,48.4113 13.5808,45.6943 14.1648,44.1243 C14.3658,43.4793 14.7608,41.9973 14.7608,41.9973 L12.9668,39.6553 Z" id="Fill-165" fill="#E5AA9B"></path>
                <path d="M34.3105,40.3174 C34.4435,39.4344 32.9945,38.0404 32.1355,38.3624 C31.2765,38.6844 29.5055,40.4304 33.1015,41.7744 C33.9595,42.3094 36.4825,44.8814 37.3405,44.8294 C37.8245,45.1244 39.3265,44.1574 37.1795,42.5474 C35.3015,41.0464 34.3105,40.3174 34.3105,40.3174" id="Fill-167" fill="#E5AA9B"></path>
            </g>
        </g>
    </g>
</svg>