<?xml version="1.0" encoding="UTF-8" standalone="no"?>
<svg width="1344px" height="79px" viewBox="0 0 1344 79" version="1.1" xmlns="http://www.w3.org/2000/svg" xmlns:xlink="http://www.w3.org/1999/xlink">
    <!-- Generator: sketchtool 47.1 (45422) - http://www.bohemiancoding.com/sketch -->
    <title>E4A861A3-9F93-4BBB-AE38-27A957CD2C7A</title>
    <desc>Created with sketchtool.</desc>
    <defs></defs>
    <g id="Page-1" stroke="none" stroke-width="1" fill="none" fill-rule="evenodd">
        <g id="Cs12_2-3_Confirmation_photo" transform="translate(0.000000, -11.000000)">
            <g id="confetti_big" transform="translate(0.000000, 11.000000)">
                <polygon id="Fill-1" fill="#FFB500" points="29.787 50 27 48.787 28.213 46 31 47.213"></polygon>
                <polygon id="Fill-1-Copy" fill="#FFB500" points="1164.787 36.4169 1162 35.2039 1163.213 32.4169 1166 33.6299"></polygon>
                <polygon id="Fill-2" fill="#FFB500" points="320.062 43.716 316.346 47.061 313 43.345 316.717 40"></polygon>
                <polygon id="Fill-2-Copy" fill="#FFB500" points="793 74.716 789.284 78.061 785.938 74.345 789.655 71"></polygon>
                <polygon id="Fill-3" fill="#FFB500" points="890.764 50.281 886 48.763 887.518 44 892.282 45.517"></polygon>
                <polygon id="Fill-4" fill="#FFB500" points="448.8 26.198 444 24.8 445.398 20 450.198 21.398"></polygon>
                <polygon id="Fill-4-Copy" fill="#FFB500" points="1055.475 39.198 1050.675 37.8 1052.073 33 1056.873 34.398"></polygon>
                <polygon id="Fill-5" fill="#FF8F04" points="242.7686 31.8349 237.9216 30.6079 239.1486 25.7609 243.9956 26.9879"></polygon>
                <polygon id="Fill-7" fill="#F8E71C" points="405 73.823 402.177 75 401 72.177 403.823 71"></polygon>
                <polygon id="Fill-7-Copy" fill="#F8E71C" points="1005 73.823 1002.177 75 1001 72.177 1003.823 71"></polygon>
                <polygon id="Fill-9" fill="#22B064" points="122.848 20.072 118 18.847 119.225 14 124.073 15.224"></polygon>
                <polygon id="Fill-9-Copy" fill="#22B064" points="1257.848 6.4889 1253 5.2639 1254.225 0.4169 1259.073 1.6409"></polygon>
                <polygon id="Fill-10" fill="#22B064" points="916.745 24.32 912 22.745 913.574 18 918.32 19.574"></polygon>
                <polygon id="Fill-11" fill="#F8E71C" points="207.914 73.84 203 72.914 203.926 68 208.839 68.926"></polygon>
                <polygon id="Fill-11-Copy" fill="#F8E71C" points="1342.914 61.2569 1338 60.3309 1338.926 55.4169 1343.839 56.3429"></polygon>
                <polygon id="Fill-12" fill="#F8E71C" points="552 20.326 554.326 22.423 556.422 20.097 554.097 18"></polygon>
                <polygon id="Fill-14" fill="#F8E71C" points="951.964 28.001 949 26.965 950.036 24 953 25.036"></polygon>
                <polygon id="Fill-16" fill="#499DFF" points="448.504 74.676 444 72.504 446.171 68 450.675 70.172"></polygon>
                <polygon id="Fill-16-Copy" fill="#499DFF" points="1048.504 74.676 1044 72.504 1046.171 68 1050.675 70.172"></polygon>
                <polygon id="Fill-17" fill="#FF8F04" points="499.699 59.942 494.757 60.699 494 55.756 498.942 55"></polygon>
                <polygon id="Fill-17-Copy" fill="#FF8F04" points="1099.699 59.942 1094.757 60.699 1094 55.756 1098.942 55"></polygon>
                <polygon id="Fill-18" fill="#499DFF" points="191.315 31.748 186.567 33.316 185 28.568 189.747 27"></polygon>
                <polygon id="Fill-18-Copy" fill="#499DFF" points="1325.315 18.1649 1320.567 19.7329 1319 14.9849 1323.747 13.4169"></polygon>
                <polygon id="Fill-19" fill="#499DFF" points="858.758 78.297 854 76.758 855.539 72 860.297 73.539"></polygon>
                <polygon id="Fill-20" fill="#499DFF" points="275.6685 68.6035 271.2105 66.3385 273.4765 61.8805 277.9335 64.1455"></polygon>
                <polygon id="Fill-21" fill="#499DFF" points="5.514 76.836 3 72.514 7.323 70 9.837 74.322"></polygon>
                <polygon id="Fill-21-Copy" fill="#499DFF" points="1139.514 63.2529 1137 58.9309 1141.323 56.4169 1143.837 60.7389"></polygon>
                <polygon id="Fill-22" fill="#499DFF" points="810.343 26.835 807.507 28.342 806 25.507 808.835 24"></polygon>
                <polygon id="Fill-23" fill="#ED3079" points="0 15.213 1.213 20.063 6.063 18.85 4.85 14"></polygon>
                <polygon id="Fill-23-Copy" fill="#ED3079" points="1134 1.6299 1135.213 6.4799 1140.063 5.2669 1138.85 0.4169"></polygon>
                <polygon id="Fill-24" fill="#ED3079" points="343.602 68.567 339.034 70.601 337 66.034 341.568 64"></polygon>
                <polygon id="Fill-24-Copy" fill="#ED3079" points="350.204 28.567 345.636 30.601 343.602 26.034 348.17 24"></polygon>
                <polygon id="Fill-25" fill="#ED3079" points="949.021 72.93 945.091 76.021 942 72.091 945.929 69"></polygon>
                <polygon id="Fill-26" fill="#EE9DFF" points="142.07 49.475 138.596 53.071 135 49.596 138.474 46"></polygon>
                <polygon id="Fill-26-Copy" fill="#EE9DFF" points="1277.07 35.8919 1273.596 39.4879 1270 36.0129 1273.474 32.4169"></polygon>
                <polygon id="Fill-27" fill="#EE9DFF" points="280.7417 19.0337 275.9997 17.4507 277.5827 12.7077 282.3257 14.2917"></polygon>
                <polygon id="Fill-28" fill="#EE9DFF" points="410.001 19.996 406.005 23.001 403 19.005 406.996 16"></polygon>
                <polygon id="Fill-28-Copy" fill="#EE9DFF" points="1010.001 19.996 1006.005 23.001 1003 19.005 1006.996 16"></polygon>
                <polygon id="Fill-29" fill="#EE9DFF" points="1231.18 51.808 1226.372 53.18 1225 48.372 1229.808 47"></polygon>
                <polygon id="Fill-30" fill="#EE9DFF" points="551.922 48.737 549.185 52.922 545 50.184 547.737 46"></polygon>
                <polygon id="Fill-31" fill="#EE9DFF" points="857.482 18.07 854 14.482 857.587 11 861.071 14.588"></polygon>
                <polygon id="Fill-32" fill="#EE9DFF" points="489.644 15.496 485 13.644 486.852 9 491.496 10.852"></polygon>
                <polygon id="Fill-32-Copy" fill="#EE9DFF" points="1089.644 15.496 1085 13.644 1086.852 9 1091.496 10.852"></polygon>
            </g>
        </g>
    </g>
</svg>