<svg xmlns="http://www.w3.org/2000/svg" width="18" height="18" viewBox="0 0 18 18">
    <path fill="#3B5998" fill-rule="evenodd" d="M15.575 0H2.426A2.426 2.426 0 0 0 0 2.426v13.148A2.426 2.426 0 0 0 2.426 18H8.91l.012-6.432h-1.67a.393.393 0 0 1-.395-.393l-.01-2.073c0-.219.177-.396.396-.396H8.91V6.702c0-2.324 1.42-3.591 3.494-3.591h1.703c.217 0 .394.177.394.395v1.748a.394.394 0 0 1-.394.394l-1.045.001c-1.128 0-1.345.536-1.345 1.322v1.735h2.476c.236 0 .42.206.393.44l-.246 2.074a.395.395 0 0 1-.39.348h-2.224L11.717 18h3.858A2.426 2.426 0 0 0 18 15.574V2.426A2.426 2.426 0 0 0 15.575 0"/>
</svg>
