<?xml version="1.0" encoding="UTF-8" standalone="no"?>
<svg width="40px" height="40px" viewBox="0 0 40 40" version="1.1" xmlns="http://www.w3.org/2000/svg" xmlns:xlink="http://www.w3.org/1999/xlink">
    <!-- Generator: sketchtool 47.1 (45422) - http://www.bohemiancoding.com/sketch -->
    <title>8C454F0C-C829-4656-A3DA-94CC36C13720</title>
    <desc>Created with sketchtool.</desc>
    <defs></defs>
    <g id="Page-1" stroke="none" stroke-width="1" fill="none" fill-rule="evenodd">
        <g id="Cs12_2-3-1_Alert_NO_CAMERA" transform="translate(-492.000000, -297.000000)" fill="#EF3030">
            <g id="icon_alert" transform="translate(492.000000, 297.000000)">
                <path d="M18.8235294,10.4989804 L18.8235294,24.5091765 C18.8235294,26.0260392 21.1764706,26.0260392 21.1764706,24.5091765 L21.1764706,10.4989804 C21.1764706,8.98133333 18.8235294,8.98133333 18.8235294,10.4989804" id="Fill-1"></path>
                <path d="M21.1837647,28.6841569 C21.1837647,29.3374902 20.6535686,29.8676863 20.0002353,29.8676863 C19.346902,29.8676863 18.8159216,29.3374902 18.8159216,28.6841569 C18.8159216,28.0308235 19.346902,27.5006275 20.0002353,27.5006275 C20.6535686,27.5006275 21.1837647,28.0308235 21.1837647,28.6841569" id="Fill-3"></path>
                <path d="M20,2.35294118 C10.2690196,2.35294118 2.35294118,10.2690196 2.35294118,20 C2.35294118,29.7309804 10.2690196,37.6470588 20,37.6470588 C29.7309804,37.6470588 37.6470588,29.7309804 37.6470588,20 C37.6470588,10.2690196 29.7309804,2.35294118 20,2.35294118 M20,40 C8.97176471,40 0,31.0282353 0,20 C0,8.97176471 8.97176471,0 20,0 C31.0282353,0 40,8.97176471 40,20 C40,31.0282353 31.0282353,40 20,40" id="Fill-5"></path>
            </g>
        </g>
    </g>
</svg>