<?xml version="1.0" encoding="UTF-8" standalone="no"?>
<svg width="214px" height="120px" viewBox="0 0 214 120" version="1.1" xmlns="http://www.w3.org/2000/svg" xmlns:xlink="http://www.w3.org/1999/xlink">
    <!-- Generator: sketchtool 47.1 (45422) - http://www.bohemiancoding.com/sketch -->
    <title>32AAE64F-979B-4605-8B2D-E99C36E2E722</title>
    <desc>Created with sketchtool.</desc>
    <defs></defs>
    <g id="Symbols" stroke="none" stroke-width="1" fill="none" fill-rule="evenodd">
        <g id="logo_mexican_pink" fill="#F05993">
            <path d="M90.6079103,83.7793111 C90.8377125,83.4408999 91.1583842,83.4783442 91.3423762,83.7793111 C91.7088582,84.3777124 91.5714274,85.1654544 91.0209535,86.1036798 C89.6436422,88.425929 86.7530908,90 84.1839622,90 C80.6963756,90 79.824479,87.6014493 81.1094188,84.5296088 C82.2569279,81.792647 85.285661,77.369988 86.982893,75.4207681 C87.3959362,74.9714373 87.7173589,74.8591045 88.0838409,75.1953962 C88.7724966,75.795917 89.1389785,77.4067257 88.0380307,79.2810571 C87.0745135,80.930723 85.1474793,83.4783442 84.1839622,85.353382 C83.0822633,87.5272673 83.1738838,88.9882991 84.6428156,88.9141171 C86.7072806,88.8392286 89.23135,86.3643765 90.6079103,83.7793111 Z" id="Fill-1"></path>
            <path d="M90.8475537,72.606159 C91.5004224,71.9428236 91.851904,70.6573871 91.1990352,69.4212526 C90.5469877,68.1367126 89.0909672,67.5657063 88.2886366,68.3742584 C87.4863061,69.1846033 87.2350132,70.6089816 88.038165,71.8935216 C88.7904012,73.1296562 90.1955061,73.27308 90.8475537,72.606159" id="Fill-3"></path>
            <path d="M100.333002,81.2186509 C102.479595,77.5271859 106.269767,75.1958499 107.229456,75.8572374 C107.868501,76.2842462 106.863219,78.3042978 105.401264,79.9368922 C104.078329,81.4134782 102.205292,83.0841591 99.967513,81.8800384 C100.059446,81.685211 100.195476,81.4522972 100.333002,81.2186509 M110.698984,83.3558919 C108.735509,85.9216066 105.401264,89.0293221 101.611839,88.8740462 C99.1909425,88.7575892 98.0952233,86.3090639 99.5564314,82.7340559 C102.753899,84.9489349 105.813093,83.9396414 108.050124,81.6068406 C109.969501,79.6256079 110.334243,77.255453 109.512827,76.3230651 C108.781849,75.4675828 107.959686,74.8860306 106.818374,74.3037459 C104.534255,73.1765307 99.8763276,75.1958499 96.9075712,80.208625 C93.9395623,85.2214001 95.9486301,90.0774344 101.748617,89.9990641 C105.265233,89.9609775 108.781849,88.1738397 110.698984,85.8036848 C111.521895,84.7929265 111.657925,83.7052627 111.475555,83.3947109 C111.293931,83.0453401 110.928442,83.0453401 110.698984,83.3558919" id="Fill-5"></path>
            <path d="M139.555563,72.5830267 C140.653766,70.636039 140.653766,69.4006407 140.15036,68.3509051 C139.921131,67.901926 139.463422,67.8645111 139.051408,68.3509051 C138.275325,69.1754452 136.993589,70.9360643 135.574764,72.9952968 C134.337975,73.1075416 133.05549,73.1830773 131.774503,73.1456624 C131.088313,73.1075416 130.812639,73.3701519 131.271097,73.8939608 C131.638164,74.3062309 132.689921,74.8681606 134.246583,74.8681606 C132.277159,77.8267631 130.355678,80.9731462 129.395313,82.8438922 C127.197408,87.1515496 129.623044,89.9223716 132.643476,89.9972014 C136.305152,90.1094462 139.327083,86.8141094 139.921131,85.7283708 C140.378841,84.8671216 140.60807,84.1936531 140.378841,83.5936025 C140.196056,83.0690876 139.692651,83.1439175 139.418475,83.5936025 C137.724725,86.4025453 135.115557,89.0625343 133.05549,88.9862926 C131.134009,88.9121687 130.630604,86.5903258 132.14082,83.8562129 C133.880266,80.7105358 136.489434,77.0777588 138.275325,74.5688413 C139.418475,74.4184757 140.835801,74.3062309 141.844859,74.4184757 C142.5303,74.4184757 142.715331,74.1572772 142.393211,73.7075922 C142.027643,73.2197863 141.341454,72.5456118 139.555563,72.5830267" id="Fill-7"></path>
            <path d="M145.723438,88.5716789 C143.96615,88.532493 144.551422,85.1458184 146.938944,81.8353386 C149.415658,78.4080268 152.704675,75.9066625 154.145002,76.0220431 C155.450437,76.136698 155.045759,78.5241331 152.208595,82.7583834 C149.911738,86.1457836 147.569179,88.6101391 145.723438,88.5716789 M160.721562,83.5283131 C159.144868,86.1849695 156.668154,88.8031657 154.819464,88.8800861 C153.289946,88.9570065 153.334173,87.301041 154.461225,85.1458184 C155.541102,83.1059765 157.792995,80.2178332 158.783681,78.4863986 C159.865769,76.5597602 159.504581,74.905246 158.830119,74.2122367 C158.51537,73.8653693 158.153445,73.9444667 157.748031,74.4437236 C157.253425,75.0590868 156.713118,75.8682023 156.126373,76.7926984 C156.217776,75.2905736 155.317756,74.0199357 153.379874,74.0199357 C151.127244,74.0199357 147.569179,75.752096 143.921923,80.2954793 C140.182528,84.9535174 141.039058,89.8415911 145.227358,89.8415911 C147.39006,89.8415911 149.415658,88.4178381 150.858933,86.8395186 C150.858933,88.6478736 152.117193,89.8800513 154.551154,89.9954319 C157.02713,90.1115382 159.865769,87.9947759 161.034837,85.8780136 C161.621582,84.798951 161.621582,83.837446 161.440988,83.4905785 C161.261132,83.1437111 160.944908,83.1814456 160.721562,83.5283131" id="Fill-9"></path>
            <path d="M81.4422424,30.997136 L81.5563436,30.9986235 C81.8048953,30.9986235 82.4916828,30.9859796 83.5069655,30.8721846 C84.6843155,30.7435145 86.5586277,30.4236986 88.8021336,29.6315963 C89.9649484,29.2136043 91.0979661,28.7048739 92.1706628,28.1195363 C93.407607,27.435279 94.5696951,26.4974002 95.5428258,25.6710851 L95.7296029,25.5119209 C99.0748758,22.6544027 102.53425,19.700196 106.29959,19.700196 C108.146285,19.700196 109.931933,20.3911471 111.758279,21.8132124 C112.730683,22.5711018 113.625323,23.3431226 114.38624,24.0072985 C115.43132,24.9265833 116.336862,25.7662861 117.137751,26.507069 C117.568719,26.9064671 117.958262,27.2671897 118.299839,27.5758493 L119.818039,28.9540328 C119.870366,29.0008896 120.009903,29.110222 120.172697,29.110222 C120.272263,29.110222 120.363835,29.0693153 120.431424,28.9956833 C120.591311,28.8179251 120.565874,28.5910789 120.471396,28.4378648 C120.411801,28.2965507 120.116737,27.6137809 119.536783,26.5598759 C119.190846,25.9261941 118.774413,25.2300366 118.294025,24.4892536 C117.83762,23.7968149 117.216968,22.8827364 116.464772,21.9470888 C115.628272,20.889465 114.802673,19.9791052 113.942917,19.1617152 C111.770634,17.0643177 109.367241,16 106.801054,16 C104.793745,16 102.733382,16.6597133 100.678107,17.9583148 C98.5639641,19.2933604 96.9411106,20.9712784 95.3713106,22.5934145 C94.9192663,23.0612383 94.4773967,23.5179057 94.0355271,23.9530041 C92.9882669,24.9994716 92.0471137,25.8071928 91.1611941,26.4215369 C90.2236747,27.0596812 89.2280145,27.6301436 88.2040107,28.1165613 C86.213417,29.0603902 84.4699215,29.5304452 83.3325433,29.8019169 C82.1333905,30.0800824 81.4211664,30.1447893 81.4015439,30.1470206 C80.7278381,30.2399904 80.5926608,30.3478353 80.5570496,30.5389811 L80.546875,30.766571 L80.7154832,30.8632595 C80.9349645,30.9874671 81.3404961,31.0090361 81.4422424,30.997136" id="Fill-11"></path>
            <polygon id="Fill-13" points="24.6759073 40.2889655 32.1977782 56 33.1849395 56 40.9984879 40.4117241 40.9984879 56 44.546875 56 44.546875 36 40.782746 36 33.5866169 50.7993103 26.2549395 36 22.546875 36 22.546875 56 24.6759073 56"></polygon>
            <polygon id="Fill-15" points="66.546875 53.9310345 56.2310855 53.9310345 56.2310855 45.6551724 62.8626645 45.6551724 62.8626645 43.5862069 56.2310855 43.5862069 56.2310855 37.3793103 66.546875 37.3793103 66.546875 36 52.546875 36 52.546875 56 66.546875 56"></polygon>
            <polygon id="Fill-17" points="70.9046966 56 77.8959035 47.6151724 84.0829692 56 88.546875 56 80.2508886 44.8248276 87.6271473 36 85.2558525 36 79.153172 43.3324138 73.7468466 36 69.2971232 36 76.7996051 46.1241379 68.546875 56"></polygon>
            <polygon id="Fill-19" points="93.546875 56 97.546875 56 97.546875 36 93.546875 36"></polygon>
            <path d="M118.001087,36.5820876 C117.267327,36.1077379 116.447961,35.7218966 115.563852,35.4356273 C114.674708,35.146592 113.691325,35 112.640322,35 C111.537523,35 110.4858,35.1306882 109.515366,35.3886072 C108.546371,35.6458347 107.639962,36.0116233 106.820596,36.4756009 C106.003389,36.94027 105.258119,37.5052025 104.606367,38.155186 C103.955335,38.8051696 103.397102,39.5298321 102.947494,40.3098123 C102.500044,41.0884096 102.150429,41.9299309 101.909439,42.8150148 C101.668449,43.6980244 101.546875,44.6204478 101.546875,45.5567007 C101.546875,46.4922621 101.666291,47.4119197 101.902964,48.2900889 C102.138199,49.1668752 102.479901,50.0021732 102.918719,50.7731643 C103.359694,51.5455384 103.905698,52.2605203 104.543062,52.8994402 C105.181865,53.5418176 105.915625,54.0984524 106.7242,54.552058 C107.532056,55.0070464 108.429833,55.3666118 109.392354,55.618999 C110.355594,55.8720777 111.39221,56 112.473427,56 C113.60572,56 114.646652,55.8540994 115.568168,55.5664472 C116.485369,55.2787949 117.32128,54.8922621 118.050004,54.4172209 C118.781606,53.9414883 119.432639,53.3855449 119.985117,52.7625288 C120.532559,52.1471189 121.015978,51.4964439 121.420985,50.8291735 L121.546875,50.6224234 L119.725423,49.4372407 L119.592339,49.7041488 C119.322575,50.2400395 118.976556,50.7752387 118.565075,51.2966085 C118.152875,51.8172868 117.680247,52.2902535 117.156543,52.7009878 C116.639314,53.1096477 116.068852,53.4477774 115.46314,53.7056964 C114.869658,53.9567007 114.246681,54.0839315 113.612194,54.0839315 C112.51587,54.0839315 111.482851,53.8903194 110.544069,53.507244 C109.608885,53.1255515 108.786642,52.5654593 108.103238,51.8414883 C107.417676,51.1168258 106.870233,50.2165295 106.476736,49.1661837 C106.083239,48.1130721 105.881815,46.8988475 105.881815,45.5567007 C105.881815,44.2145538 106.086836,42.995489 106.490404,41.9340797 C106.893972,40.8740533 107.450047,39.9613105 108.145681,39.2207442 C108.839156,38.4836352 109.663557,37.9090221 110.595864,37.5128087 C111.528891,37.1165953 112.547522,36.9160685 113.626581,36.9160685 C114.85527,36.9160685 115.959507,37.2721765 116.906202,37.9733289 C117.868722,38.6848535 118.759306,39.8278564 119.551335,41.3698387 L119.689455,41.6381297 L121.543998,40.3727363 L121.420985,40.1708265 C121.014539,39.5035561 120.524646,38.8508067 119.962097,38.2353968 C119.394512,37.6123806 118.735566,37.0571287 118.001087,36.5820876" id="Fill-21"></path>
            <path d="M131.601499,47.0344828 L134.789239,40.1965517 L137.893715,47.0344828 L131.601499,47.0344828 Z M130.79613,49.1034483 L138.720618,49.1034483 L141.670049,56 L145.546875,56 L136.227706,36 L135.078512,36 L125.546875,56 L127.748361,56 L130.79613,49.1034483 Z" id="Fill-22"></path>
            <polygon id="Fill-23" points="151.00142 40.6593103 164.675602 56 165.546875 56 165.546875 36 164.09233 36 164.09233 49.6910345 151.29742 36 149.546875 36 149.546875 56 151.00142 56"></polygon>
            <path d="M124.149051,72.0437891 C122.087517,71.7106468 120.296976,73.3285658 119.640776,75.1910704 C118.953361,77.1505657 119.93447,78.9287304 120.429635,80.8003718 C121.395137,84.4543949 121.628531,90.395433 116.840041,91.4335157 C114.708276,91.8959791 114.210273,89.5864734 114.920388,88.0219696 C115.223305,87.3563878 116.085233,86.7189193 116.192353,85.9879741 C116.376089,84.7313106 114.837388,85.0412595 114.209563,85.7103555 C113.620047,86.3400929 113.16319,87.0576842 112.849632,87.8434503 C111.99196,90.0011443 113.014214,92.0548191 115.187125,92.7485142 C117.805542,93.5834785 119.962846,92.2347441 121.580292,90.2443241 C123.541799,87.8315022 122.687674,84.871877 122.504648,82.0816344 C122.461374,81.4336233 122.445057,80.7820982 122.463502,80.1326815 C122.491878,79.1360659 122.591195,78.1120398 122.93171,77.1681365 C123.383602,75.9086617 124.147632,75.2332403 125.20039,75.1608486 L125.282681,75.1580373 C125.588435,75.1580373 125.848787,75.28033 126.051677,75.5263212 C126.253149,75.7702039 126.368782,76.0787471 126.39503,76.4484367 C126.40709,76.605871 126.386517,76.7886073 126.332602,77.0057824 C126.285072,77.1976555 126.231867,77.3881229 126.170858,77.579996 L126.009113,78.090252 C125.950942,78.2687713 125.953779,78.3235922 125.953779,78.328512 C126.007694,78.5632579 126.11978,78.5885598 126.219097,78.5892626 C126.310611,78.5829371 126.45462,78.4690784 126.603595,78.2687713 C126.786622,78.0213745 126.959008,77.7086143 127.115786,77.3361133 C127.273984,76.9643153 127.401677,76.5426161 127.496028,76.0843697 C127.652807,75.3154716 127.435019,74.5690641 127.007957,73.9280814 C126.351047,72.9434139 125.198262,72.2117659 124.149051,72.0437891" id="Fill-24"></path>
            <path d="M198.863601,44.2010788 C197.898325,42.5380262 196.543031,41.6419224 195.400475,40.9925192 C194.233316,40.3561767 193.197852,39.9556509 192.346904,39.6792011 C190.641391,39.1400876 189.69927,39.0000487 189.69927,39.0000487 C189.69927,39.0000487 189.511859,38.9927928 189.47785,39.155325 C189.421409,39.4303237 189.965553,39.5144921 190.142834,39.5768929 C190.511143,39.7053223 190.874388,39.8627754 191.228226,40.0260332 C191.503916,40.153737 191.781053,40.2770874 192.053848,40.4105959 C192.826647,40.7922564 193.773833,41.2863832 194.764435,42.0039919 C195.731158,42.7201493 196.826681,43.6648677 197.375889,44.944083 C197.938846,46.208061 197.703678,47.721642 196.697157,49.1764502 C196.225373,49.8998636 195.561113,50.631984 194.850543,51.2697777 C194.454736,51.6282193 194.053141,52.0193123 193.663123,52.2856039 C193.275276,52.588175 192.876576,52.8914717 192.40841,53.1628424 C190.620406,54.3100004 188.472776,55.1640199 186.133394,55.9099266 C183.761449,56.5847254 181.20933,57.1557648 178.484271,57.5613697 C173.056585,58.4589247 167.039169,58.8790414 160.667191,59.2614274 C154.290149,59.6278504 147.536837,60.0167667 140.533161,60.2656441 C133.513566,60.5210518 126.256631,60.6850352 118.888263,60.7692036 C117.045267,60.7858922 115.195035,60.8033064 113.341184,60.8207205 C111.484439,60.8265253 109.623353,60.8316044 107.758649,60.8374091 C104.027793,60.8199949 100.279571,60.800404 96.532796,60.8265253 C92.7838503,60.8091111 89.0349046,60.8628048 85.2989837,60.892554 C81.5645099,60.9847039 77.8430608,61.0652444 74.1541735,61.2647817 C66.7749517,61.6224976 59.5143995,62.1253316 52.4861213,62.8516473 C50.7299563,63.0141795 48.9846451,63.2137168 47.2617654,63.4553383 C46.3999638,63.5707071 45.5425037,63.6846248 44.6893852,63.799268 C43.8355431,63.9378557 42.9874898,64.0778946 42.1423308,64.2157567 C41.2978955,64.3543444 40.4585253,64.4907554 39.6234966,64.6278919 C38.788468,64.7984056 37.9585046,64.9674681 37.1328827,65.1365306 C36.3094316,65.3201049 35.4924928,65.4811859 34.679172,65.6821744 C33.8658513,65.9078329 33.0575956,66.1313146 32.2558524,66.3540708 C29.0669692,67.2218766 25.919331,68.497464 23.1718408,70.2171126 C20.4366517,71.9607057 17.9272242,74.1759323 16.4525376,77.1871314 C15.7441381,78.6905541 15.3772755,80.448659 15.6232978,82.1733867 C15.8881335,83.8973888 16.7861149,85.4682914 17.9568916,86.5022574 C21.3447634,89.494591 25.9482748,90.1127938 30.3006987,89.8972936 C31.2847879,89.8479534 42.3811172,88.572366 42.0873376,87.5783075 C41.8434861,86.7518604 40.0952806,87.07112 39.5648855,87.1770562 C36.9259345,87.7052858 34.2117297,88.0267222 31.5185091,88.0586482 C30.725449,88.0688064 29.9316653,88.0492155 29.1400523,87.9904427 C28.2420709,87.9251396 27.3462603,87.8090452 26.4649216,87.6211173 C24.438132,87.1864888 22.0669112,86.120597 20.4641483,84.7274639 C19.669641,84.0359765 18.9554527,82.8322225 18.8715157,81.7561724 C18.7969854,80.799119 19.0538617,79.7557204 19.5849804,78.7427966 C20.6776088,76.7038883 22.7485377,74.9087784 25.1595562,73.525078 C26.3795374,72.8415721 27.6783904,72.216839 29.0445378,71.6675673 C29.7406362,71.4201411 30.3499032,71.161831 31.1407925,70.9267398 L32.2355917,70.5842612 L33.3600583,70.3005555 C34.11115,70.1097253 34.8680303,69.9174439 35.6292523,69.7244369 C36.4013281,69.5502953 37.1980062,69.4131588 37.9874484,69.2535289 C38.7790613,69.0931735 39.5750158,68.9306413 40.3760354,68.7673836 C41.1886326,68.6309726 42.0055714,68.4945617 42.8261281,68.3588763 C43.6474084,68.2210142 44.4730303,68.0831521 45.3037174,67.9445644 C46.1401932,67.8291955 46.9817342,67.7145523 47.8276167,67.5991835 C49.5193818,67.3764273 51.2198301,67.0927216 52.9528401,66.8982634 C57.7531693,66.2655488 62.6989411,65.7561846 67.7228612,65.3041419 C67.3885603,66.9185799 66.940655,68.8413938 66.3805925,71.0595228 C65.8335546,73.2551585 65.3400629,75.155479 64.9022879,76.7532285 C64.1258705,76.7931359 63.3487294,76.8185316 62.5296199,76.8207083 C61.4138364,76.8032942 61.0455265,77.1341633 61.8045777,77.755994 C62.481139,78.3103449 63.3820148,78.5730085 64.3574209,78.6832982 C64.3284771,78.7856064 64.2973625,78.8937193 64.2684187,78.9923996 C63.0281768,83.1848593 61.4854723,88.4025779 58.9442067,92.6719502 C58.1475286,94.0099384 57.1446259,95.2797211 55.9658897,96.4421165 C53.1713658,99.1623538 49.9694579,100.541701 46.4498919,100.541701 C44.1908283,100.541701 41.8196075,99.9220467 39.4469395,98.7240974 C39.3796451,98.6812876 38.7732725,98.3213949 38.0858573,98.5441511 C37.5988778,98.7008785 37.2255028,99.0926972 36.9758626,99.707272 C36.7081324,100.366833 36.8072649,100.871119 36.9367884,101.177318 C37.223332,101.852842 37.8644372,102.127115 37.9686349,102.167748 C39.6423101,102.719922 41.5880571,103 43.7530533,103 C46.9166106,103 49.8891389,102.393407 52.5888718,101.19836 C55.2893283,100.002587 57.7365266,98.1980446 59.8646195,95.8333464 C63.9594436,91.2824451 66.0904309,85.3826718 67.9204026,79.7332271 C68.041243,79.3697064 68.1534002,79.004009 68.2706226,78.6383116 C68.3205507,78.6346837 68.3719259,78.6310557 68.4211304,78.6281533 C69.8176687,78.549064 71.2322969,78.476505 72.6252173,78.3654897 C74.7677821,78.1935249 76.7424728,77.8437904 78.9103634,77.9714943 C80.0232525,77.9439219 80.2844703,77.6166807 79.7504572,77.0811952 C79.2055902,76.5623983 77.9639012,75.8817947 75.7931162,75.819394 L75.7931162,75.8404361 L69.0492108,76.4412247 C69.1461725,76.1074533 69.1997186,75.7729562 69.2937859,75.4428127 C69.7004463,74.0141257 70.0607966,72.6326022 70.4254885,71.2989675 C70.7901804,69.9653329 71.2055239,68.2630984 71.6852674,66.2408788 C71.7981482,65.7648916 71.8936627,65.3317143 71.9870065,64.9355421 C72.7873026,64.8687878 73.5781919,64.7991312 74.3821059,64.7345537 C81.7034401,64.1519048 89.1492327,63.501776 96.6102207,62.9786256 C100.340353,62.7217667 104.072656,62.5077176 107.794105,62.3031012 C111.514107,62.1427457 115.222531,62.0208466 118.902012,61.9678785 C126.265314,61.8452538 133.507777,62.0222978 140.516518,62.3560692 C147.542625,62.6818592 154.355996,62.9198528 160.828553,62.7050781 C167.299663,62.4924802 173.426342,61.8924171 179.058082,60.8526465 C181.872143,60.3367519 184.550168,59.612613 187.068278,58.7861658 C189.576982,57.9009459 191.901169,56.758867 193.881649,55.3243753 C194.382377,54.9884271 194.857055,54.5871758 195.315091,54.1764918 C195.804964,53.7708869 196.161697,53.3834218 196.527112,52.9945055 C197.332474,52.1354068 197.995287,51.2712289 198.534365,50.2924078 C199.068378,49.3317265 199.457672,48.2752673 199.532202,47.1839798 C199.616863,46.0934178 199.327425,45.0304283 198.863601,44.2010788" id="Fill-25"></path>
        </g>
    </g>
</svg>