<?xml version="1.0" encoding="UTF-8" standalone="no"?>
<svg width="39px" height="59px" viewBox="0 0 39 59" version="1.1" xmlns="http://www.w3.org/2000/svg" xmlns:xlink="http://www.w3.org/1999/xlink">
    <!-- Generator: sketchtool 47.1 (45422) - http://www.bohemiancoding.com/sketch -->
    <title>55D05562-E18B-4DC2-9BEA-7E501AEFDE4E</title>
    <desc>Created with sketchtool.</desc>
    <defs>
        <polygon id="path-1" points="0.253523575 0.864 3.2867 0.864 3.2867 6.438 0.253523575 6.438 0.253523575 0.864"></polygon>
    </defs>
    <g id="Page-1" stroke="none" stroke-width="1" fill="none" fill-rule="evenodd">
        <g id="Cs12_2-3_Confirmation_photo" transform="translate(-1285.000000, -19.000000)">
            <g id="maria_happy" transform="translate(1285.000000, 18.000000)">
                <path d="M22.5347,19.0732 L23.0147,20.3992 C23.0147,20.3992 20.8457,21.8612 17.0047,22.1352 C12.3997,22.4652 10.6067,21.3582 10.6067,21.3582 L10.7237,21.0852 L11.1557,20.0782 L11.1727,20.0242 C16.0857,21.7542 22.5347,19.0732 22.5347,19.0732" id="Fill-1" fill="#256BBC"></path>
                <path d="M11.3179,20.2934 C11.3289,20.3644 11.3479,20.3784 11.3869,20.4324 C11.4029,20.4524 11.4299,20.4874 11.4439,20.5124 L11.4919,20.5884 C11.5229,20.6424 11.5619,20.6884 11.5749,20.7564 L11.6279,20.9464 C11.6469,21.0644 11.6679,21.1904 11.6589,21.3214 C11.6529,21.3874 11.6389,21.4534 11.6129,21.5174 C11.5829,21.5824 11.5369,21.6374 11.4829,21.6834 C11.4579,21.7044 11.4219,21.7004 11.4009,21.6764 L11.3949,21.6674 C11.3269,21.5494 11.3339,21.4294 11.3459,21.3194 C11.3619,21.2094 11.3949,21.1024 11.4409,21.0014 C11.4879,20.9004 11.5479,20.8044 11.6339,20.7244 C11.7179,20.6454 11.8399,20.5784 11.9829,20.6094 C12.0229,20.6134 12.1129,20.6664 12.1459,20.7064 C12.1899,20.7494 12.2219,20.7974 12.2499,20.8474 C12.3059,20.9464 12.3419,21.0504 12.3699,21.1564 C12.3969,21.2634 12.4119,21.3724 12.4139,21.4844 C12.4099,21.5954 12.4129,21.7154 12.3179,21.8354 L12.3139,21.8404 C12.2909,21.8694 12.2499,21.8744 12.2219,21.8524 C12.2129,21.8454 12.2059,21.8354 12.2009,21.8254 C12.1729,21.7584 12.1299,21.6924 12.1209,21.6234 C12.1169,21.5534 12.0929,21.4814 12.1099,21.4144 C12.1209,21.3464 12.1199,21.2744 12.1489,21.2114 C12.1739,21.1474 12.1889,21.0794 12.2319,21.0224 C12.2699,20.9664 12.2979,20.9004 12.3549,20.8564 C12.4079,20.8124 12.4499,20.7524 12.5179,20.7274 C12.5819,20.6994 12.6409,20.6494 12.7139,20.6474 C12.7879,20.6424 12.8459,20.6134 12.9329,20.6304 C12.9609,20.6324 13.0019,20.6504 13.0449,20.6734 C13.0889,20.6954 13.1049,20.7214 13.1359,20.7464 C13.1859,20.7974 13.2279,20.8544 13.2609,20.9144 C13.3279,21.0334 13.3729,21.1594 13.4019,21.2914 C13.4279,21.4224 13.4379,21.5614 13.4049,21.7024 C13.3899,21.7724 13.3579,21.8454 13.3029,21.9064 C13.2489,21.9674 13.1699,22.0024 13.0909,22.0174 C13.0539,22.0254 13.0169,22.0034 13.0039,21.9684 C12.9589,21.8424 12.9399,21.7134 12.9509,21.5854 C12.9649,21.4574 13.0019,21.3334 13.0629,21.2194 C13.1279,21.1064 13.2199,21.0074 13.3349,20.9394 C13.3959,20.9144 13.4559,20.8784 13.5199,20.8664 L13.7169,20.8474 C13.8019,20.8584 13.8389,20.8704 13.9019,20.8814 C13.9589,20.8884 14.0279,20.9394 14.0889,20.9724 C14.1529,21.0074 14.1849,21.0674 14.2329,21.1154 C14.2749,21.1684 14.2949,21.2304 14.3249,21.2874 C14.4179,21.5284 14.4209,21.7774 14.4099,22.0164 L14.4089,22.0304 C14.4069,22.0724 14.3709,22.1054 14.3279,22.1034 C14.3169,22.1024 14.3049,22.0994 14.2959,22.0944 C14.2559,22.0724 14.2129,22.0474 14.1789,22.0194 C14.1559,21.9834 14.1309,21.9454 14.1149,21.9084 C14.0939,21.8344 14.0839,21.7614 14.0859,21.6924 C14.0909,21.5544 14.1149,21.4254 14.1649,21.2954 L14.1879,21.2454 L14.1929,21.2334 L14.2019,21.2184 L14.2049,21.2134 L14.2189,21.1944 L14.2729,21.1184 C14.2989,21.0664 14.3669,21.0164 14.4239,20.9684 C14.4829,20.9164 14.5519,20.9054 14.6159,20.8724 C14.6819,20.8474 14.7489,20.8444 14.8149,20.8304 C14.8399,20.8234 14.8919,20.8194 14.9199,20.8214 C14.9479,20.8194 14.9849,20.8224 15.0269,20.8314 C15.1089,20.8474 15.1699,20.8764 15.2319,20.9154 C15.3529,20.9914 15.4459,21.0984 15.5169,21.2134 C15.5869,21.3314 15.6359,21.4604 15.6559,21.5984 C15.6749,21.7344 15.6669,21.8884 15.5809,22.0234 L15.5789,22.0264 C15.5539,22.0654 15.5039,22.0784 15.4629,22.0564 C15.3929,22.0194 15.3329,21.9674 15.2899,21.9014 C15.2529,21.8364 15.2279,21.7664 15.2179,21.6974 C15.1979,21.5574 15.2139,21.4244 15.2539,21.2954 C15.2849,21.2104 15.2969,21.1834 15.3439,21.1134 C15.3869,21.0464 15.4429,20.9994 15.5009,20.9574 C15.6219,20.8764 15.7569,20.8504 15.8829,20.8314 C15.9509,20.8214 15.9999,20.8194 16.0789,20.8154 C16.1439,20.8204 16.1899,20.8094 16.2739,20.8324 C16.4299,20.8584 16.5549,20.9884 16.6069,21.1124 C16.6659,21.2324 16.6929,21.3544 16.7399,21.4544 C16.7599,21.5044 16.7949,21.5654 16.8059,21.6534 C16.8219,21.7444 16.7619,21.8524 16.6939,21.8984 L16.6869,21.9024 C16.6439,21.9324 16.5849,21.9214 16.5549,21.8774 L16.5449,21.8604 C16.5019,21.7554 16.4199,21.6704 16.3769,21.5084 C16.3429,21.3354 16.4099,21.2054 16.4799,21.0854 C16.5149,21.0344 16.5389,20.9804 16.5819,20.9284 C16.6339,20.8764 16.6869,20.8254 16.7429,20.7774 C16.8669,20.7104 16.9969,20.6494 17.1289,20.6424 C17.1879,20.6324 17.2709,20.6154 17.3299,20.6214 C17.3849,20.6184 17.4599,20.6274 17.5359,20.6444 C17.6829,20.6784 17.8139,20.7994 17.8679,20.9294 C17.9289,21.0584 17.9489,21.1844 17.9849,21.2964 C18.0139,21.4194 18.0629,21.5394 18.0369,21.7064 C18.0219,21.7514 18.0119,21.7964 17.9639,21.8354 L17.9319,21.8614 L17.9229,21.8684 L17.9009,21.8774 L17.8899,21.8804 L17.8469,21.8954 C17.8319,21.9074 17.7619,21.9154 17.6949,21.8954 C17.6429,21.8764 17.5979,21.8234 17.5829,21.7854 C17.5219,21.6204 17.5399,21.4974 17.5799,21.3504 C17.6569,21.1164 17.7859,20.8494 18.0479,20.7164 C18.0879,20.7004 18.1009,20.6884 18.1609,20.6734 L18.2519,20.6574 C18.3119,20.6474 18.3699,20.6324 18.4529,20.6504 C18.5319,20.6594 18.6069,20.6764 18.6659,20.7184 C18.7339,20.7504 18.7869,20.7964 18.8319,20.8504 C18.9299,20.9504 18.9889,21.0734 19.0369,21.1944 C19.0849,21.3174 19.1129,21.4444 19.1309,21.5744 L19.1319,21.5774 C19.1389,21.6244 19.1079,21.6674 19.0599,21.6754 C19.0499,21.6764 19.0389,21.6754 19.0289,21.6734 C18.9609,21.6584 18.8899,21.6394 18.8239,21.5904 C18.7599,21.5394 18.7159,21.4604 18.7079,21.3834 C18.6899,21.2304 18.7399,21.1054 18.7929,20.9904 C18.9109,20.7674 19.0599,20.5684 19.2829,20.4214 C19.3149,20.4034 19.3399,20.3924 19.3849,20.3734 L19.4709,20.3504 C19.5329,20.3364 19.6149,20.3294 19.6829,20.3414 C19.8319,20.3614 19.9529,20.4734 20.0169,20.5884 C20.1439,20.8244 20.1659,21.0754 20.1629,21.3224 L20.1629,21.3254 C20.1609,21.3704 20.1259,21.4044 20.0819,21.4044 L20.0639,21.4024 C20.0009,21.3864 19.9379,21.3664 19.8799,21.3194 C19.8229,21.2704 19.7869,21.1974 19.7809,21.1274 C19.7689,20.9904 19.8149,20.8774 19.8669,20.7754 C19.9789,20.5754 20.1229,20.4014 20.3319,20.2824 C20.3739,20.2554 20.4659,20.2304 20.5099,20.2284 C20.5509,20.2214 20.6459,20.2124 20.7119,20.2524 C20.7859,20.2864 20.8279,20.3574 20.8479,20.4114 C20.8729,20.4674 20.8859,20.5214 20.9019,20.5694 C20.9329,20.6684 20.9699,20.7844 20.9649,20.9084 C20.9639,20.9704 20.9469,21.0354 20.9179,21.0964 C20.8849,21.1544 20.8389,21.2034 20.7849,21.2404 C20.7529,21.2644 20.7059,21.2564 20.6809,21.2274 C20.6169,21.1504 20.5489,21.0744 20.4969,20.9734 C20.4419,20.8754 20.4309,20.7284 20.4829,20.6244 C20.5329,20.5174 20.5959,20.4384 20.6589,20.3634 C20.7259,20.2824 20.8009,20.2094 20.8859,20.1454 C20.9649,20.0854 21.1019,20.0254 21.1949,20.0314 C21.3279,20.0294 21.4319,20.0834 21.5179,20.1554 C21.6029,20.2284 21.6659,20.3194 21.7109,20.4164 C21.7529,20.5174 21.7909,20.6144 21.7699,20.7494 C21.7619,20.7824 21.7389,20.8324 21.6869,20.8554 C21.6739,20.8594 21.6599,20.8634 21.6469,20.8644 C21.6339,20.8644 21.6489,20.8704 21.6119,20.8634 L21.6029,20.8604 L21.5679,20.8514 C21.5309,20.8534 21.4469,20.7954 21.4109,20.7354 C21.3509,20.6154 21.3689,20.5044 21.3809,20.3994 C21.4019,20.3004 21.4349,20.1854 21.5119,20.1014 C21.5699,20.0304 21.6599,19.9434 21.7549,19.8984 C21.8469,19.8424 21.9569,19.8194 22.0559,19.8034 C22.1039,19.7964 22.1629,19.7904 22.2259,19.8024 C22.3009,19.8154 22.3559,19.8974 22.3639,19.9524 C22.3839,20.0634 22.3949,20.1474 22.4029,20.2564 C22.4129,20.3584 22.3809,20.4984 22.2739,20.5694 L22.2669,20.5744 C22.2489,20.5854 22.2249,20.5854 22.2089,20.5724 C22.1589,20.5344 22.1079,20.4964 22.0779,20.4354 C22.0479,20.3764 22.0409,20.3084 22.0469,20.2474 C22.0649,20.1254 22.1229,20.0254 22.1879,19.9354 C22.2609,19.8424 22.3219,19.7714 22.4269,19.7004 C22.5259,19.6414 22.6269,19.6034 22.7239,19.5624 C22.7509,19.5514 22.7819,19.5644 22.7929,19.5904 C22.8039,19.6174 22.7919,19.6484 22.7649,19.6594 C22.6669,19.7004 22.5689,19.7414 22.4869,19.7914 C22.4509,19.8234 22.4099,19.8384 22.3769,19.8844 L22.3239,19.9434 C22.3039,19.9664 22.2929,19.9794 22.2789,20.0014 C22.2219,20.0824 22.1729,20.1724 22.1629,20.2614 C22.1579,20.3044 22.1629,20.3454 22.1829,20.3804 C22.1989,20.4164 22.2359,20.4424 22.2699,20.4704 L22.2049,20.4724 C22.2669,20.4284 22.2869,20.3534 22.2809,20.2624 C22.2739,20.1754 22.2589,20.0644 22.2419,19.9834 C22.2299,19.9434 22.2219,19.9334 22.1959,19.9264 C22.1629,19.9214 22.1229,19.9224 22.0739,19.9304 C21.9819,19.9474 21.8939,19.9664 21.8179,20.0144 C21.7369,20.0554 21.6799,20.1084 21.6149,20.1894 C21.5579,20.2504 21.5369,20.3344 21.5179,20.4244 C21.5049,20.5114 21.4999,20.6064 21.5339,20.6654 C21.5549,20.6794 21.5429,20.7034 21.6069,20.7134 L21.6429,20.7234 L21.6519,20.7254 C21.6209,20.7204 21.6429,20.7224 21.6339,20.7224 C21.6339,20.7204 21.6309,20.7214 21.6299,20.7234 C21.6239,20.7274 21.6249,20.7284 21.6289,20.7144 C21.6399,20.6544 21.6129,20.5564 21.5769,20.4794 C21.5389,20.3984 21.4859,20.3254 21.4219,20.2714 C21.3599,20.2174 21.2739,20.1824 21.2079,20.1844 C21.1029,20.1844 21.0559,20.2214 20.9769,20.2694 C20.9049,20.3244 20.8409,20.3884 20.7799,20.4604 C20.7179,20.5344 20.6599,20.6124 20.6289,20.6834 C20.5549,20.8314 20.6719,20.9774 20.8009,21.1224 L20.6969,21.1084 C20.7299,21.0844 20.7579,21.0554 20.7769,21.0214 C20.7929,20.9854 20.8049,20.9464 20.8049,20.9014 C20.8079,20.8134 20.7819,20.7204 20.7489,20.6184 C20.7159,20.5184 20.6889,20.4104 20.6379,20.3964 C20.6119,20.3834 20.5909,20.3804 20.5299,20.3894 C20.4699,20.3964 20.4569,20.4034 20.4079,20.4284 C20.2459,20.5184 20.1069,20.6824 20.0129,20.8524 C19.9699,20.9374 19.9389,21.0324 19.9459,21.1074 C19.9509,21.1454 19.9659,21.1704 19.9889,21.1924 C20.0139,21.2124 20.0519,21.2254 20.0929,21.2364 L19.9949,21.3154 C19.9989,21.0944 19.9699,20.8554 19.8689,20.6754 C19.8179,20.5854 19.7449,20.5224 19.6539,20.5114 C19.6059,20.5034 19.5679,20.5074 19.5159,20.5174 L19.4309,20.5414 C19.4219,20.5484 19.3919,20.5584 19.3729,20.5704 C19.1979,20.6834 19.0499,20.8754 18.9509,21.0674 C18.9039,21.1644 18.8719,21.2724 18.8829,21.3564 C18.8879,21.3974 18.9069,21.4264 18.9349,21.4494 C18.9649,21.4734 19.0079,21.4854 19.0559,21.4964 L18.9539,21.5964 C18.9369,21.4814 18.9109,21.3664 18.8689,21.2594 C18.8269,21.1534 18.7749,21.0484 18.6989,20.9744 C18.6649,20.9324 18.6249,20.8984 18.5769,20.8784 C18.5349,20.8454 18.4889,20.8404 18.4439,20.8334 C18.4059,20.8144 18.3419,20.8264 18.2809,20.8384 L18.1899,20.8554 L18.1309,20.8814 C18.0379,20.9274 17.9619,21.0034 17.8999,21.0974 C17.8379,21.1934 17.7959,21.2944 17.7559,21.4124 C17.7269,21.4994 17.7239,21.6374 17.7519,21.7024 C17.7589,21.7184 17.7639,21.7164 17.7629,21.7184 C17.7569,21.7104 17.7479,21.7354 17.7909,21.7144 L17.8359,21.6994 L17.8469,21.6954 C17.8389,21.6984 17.8669,21.6884 17.8339,21.7014 L17.8339,21.6994 L17.8359,21.6944 C17.8429,21.6974 17.8439,21.6784 17.8499,21.6654 C17.8659,21.5874 17.8329,21.4624 17.7999,21.3494 C17.7619,21.2274 17.7409,21.1074 17.6949,21.0124 C17.6499,20.9164 17.5819,20.8574 17.4859,20.8314 C17.4419,20.8234 17.3939,20.8124 17.3269,20.8154 C17.2619,20.8114 17.2239,20.8264 17.1609,20.8354 C17.0429,20.8414 16.9489,20.8924 16.8559,20.9394 C16.8199,20.9744 16.7839,21.0064 16.7459,21.0394 C16.7099,21.0804 16.6799,21.1414 16.6479,21.1914 C16.5929,21.2784 16.5479,21.3934 16.5709,21.4654 C16.5869,21.5454 16.6699,21.6564 16.7249,21.7764 L16.5759,21.7384 C16.6039,21.7114 16.6109,21.7044 16.6089,21.6724 C16.6069,21.6394 16.5849,21.5904 16.5579,21.5294 C16.5049,21.4104 16.4779,21.2934 16.4309,21.1964 C16.3869,21.0984 16.3229,21.0414 16.2369,21.0224 C16.2049,21.0064 16.1279,21.0124 16.0719,21.0084 C16.0309,21.0124 15.9599,21.0144 15.9079,21.0224 C15.7959,21.0384 15.6869,21.0624 15.6059,21.1184 C15.5659,21.1464 15.5289,21.1784 15.5049,21.2134 C15.4809,21.2394 15.4419,21.3264 15.4339,21.3544 C15.4019,21.4544 15.3889,21.5674 15.4039,21.6674 C15.4119,21.7184 15.4279,21.7634 15.4489,21.8024 C15.4739,21.8394 15.5059,21.8644 15.5429,21.8874 L15.4249,21.9204 C15.5259,21.7584 15.4729,21.4974 15.3589,21.3094 C15.3009,21.2124 15.2249,21.1264 15.1359,21.0694 C15.0929,21.0414 15.0389,21.0184 14.9979,21.0114 C14.9789,21.0054 14.9539,21.0004 14.9189,21.0024 C14.8849,21.0004 14.8749,21.0024 14.8389,21.0094 C14.7839,21.0224 14.7219,21.0234 14.6729,21.0444 C14.6269,21.0684 14.5639,21.0774 14.5319,21.1134 C14.4949,21.1474 14.4519,21.1614 14.4179,21.2224 L14.3629,21.2984 L14.3499,21.3184 L14.3469,21.3234 L14.3459,21.3234 C14.3569,21.3074 14.3479,21.3194 14.3509,21.3154 L14.3499,21.3184 L14.3459,21.3284 L14.3299,21.3634 C14.2899,21.4654 14.2669,21.5854 14.2619,21.6954 C14.2599,21.7524 14.2679,21.8024 14.2809,21.8484 C14.2899,21.8684 14.3009,21.8814 14.3099,21.9004 C14.3239,21.9094 14.3369,21.9144 14.3479,21.9274 L14.2349,22.0054 C14.2479,21.7804 14.2409,21.5484 14.1649,21.3514 C14.1399,21.3074 14.1259,21.2524 14.0929,21.2154 C14.0579,21.1834 14.0329,21.1314 13.9919,21.1134 C13.9479,21.0964 13.9279,21.0574 13.8679,21.0474 L13.7089,21.0164 L13.5569,21.0304 C13.5079,21.0404 13.4649,21.0684 13.4189,21.0854 C13.3319,21.1364 13.2609,21.2104 13.2089,21.3014 C13.1589,21.3924 13.1279,21.4954 13.1159,21.5994 C13.1069,21.7064 13.1229,21.8084 13.1549,21.9044 L13.0679,21.8554 C13.1129,21.8444 13.1539,21.8294 13.1839,21.7954 C13.2129,21.7614 13.2359,21.7164 13.2489,21.6644 C13.2729,21.5594 13.2679,21.4384 13.2439,21.3234 C13.2199,21.2084 13.1789,21.0944 13.1229,20.9934 C13.0949,20.9424 13.0609,20.8974 13.0239,20.8584 C12.9729,20.8184 12.9719,20.7984 12.9039,20.7864 C12.8679,20.7744 12.7999,20.7984 12.7499,20.8014 C12.6919,20.7984 12.6489,20.8424 12.5969,20.8614 C12.5429,20.8784 12.5109,20.9294 12.4669,20.9644 C12.4209,20.9984 12.3989,21.0544 12.3659,21.1014 C12.3289,21.1454 12.3179,21.2054 12.2969,21.2574 C12.2699,21.3104 12.2729,21.3694 12.2629,21.4254 C12.2469,21.4824 12.2699,21.5364 12.2699,21.5914 C12.2769,21.6474 12.3099,21.6894 12.3259,21.7404 L12.2099,21.7304 C12.2489,21.6844 12.2679,21.5794 12.2669,21.4854 C12.2659,21.3884 12.2529,21.2884 12.2299,21.1904 C12.2069,21.0944 12.1729,21.0004 12.1279,20.9164 C12.1049,20.8734 12.0779,20.8344 12.0469,20.8034 C12.0069,20.7694 12.0089,20.7574 11.9459,20.7414 C11.9189,20.7344 11.8709,20.7394 11.8349,20.7514 C11.7959,20.7684 11.7579,20.7914 11.7239,20.8224 C11.6549,20.8844 11.5989,20.9674 11.5579,21.0564 C11.5159,21.1454 11.4849,21.2414 11.4709,21.3374 C11.4559,21.4324 11.4599,21.5344 11.4979,21.6014 L11.4089,21.5854 C11.4479,21.5524 11.4809,21.5144 11.5039,21.4684 C11.5229,21.4194 11.5359,21.3684 11.5409,21.3124 C11.5499,21.1994 11.5339,21.0844 11.5149,20.9624 L11.4739,20.8024 C11.4679,20.7474 11.4279,20.6964 11.3979,20.6444 L11.3509,20.5664 C11.3349,20.5394 11.3229,20.5264 11.3019,20.4984 C11.2839,20.4714 11.2639,20.4524 11.2449,20.4124 C11.2229,20.3724 11.2219,20.3454 11.2139,20.3154 C11.2069,20.2874 11.2239,20.2584 11.2529,20.2514 C11.2789,20.2434 11.3089,20.2604 11.3159,20.2884 C11.3169,20.2904 11.3179,20.2924 11.3179,20.2934" id="Fill-3" fill="#FFFFFF"></path>
                <path d="M24.5044,27.0737 C24.4824,27.3167 24.4694,27.5717 24.4694,27.8327 C24.3254,27.7817 24.1964,27.7187 24.1044,27.6427 C24.3274,27.3427 24.4664,27.1317 24.5044,27.0737" id="Fill-5" fill="#EC8026"></path>
                <path d="M27.7461,24.4043 C27.7711,24.4193 27.7941,24.4343 27.8161,24.4523 C27.4241,24.9223 27.0061,25.3733 26.5581,25.7923 L26.5561,25.7953 C26.0881,25.5693 25.6311,25.2793 25.5431,25.2233 L25.5411,25.2233 C25.4601,25.0603 25.3841,24.9223 25.3261,24.8143 L25.3501,24.8013 C25.3501,24.8013 27.2281,24.1123 27.7461,24.4043" id="Fill-7" fill="#ECBA30"></path>
                <path d="M23.9614,27.4629 C23.8084,27.0299 24.7134,24.9069 24.9544,25.0059 C24.9544,25.0059 24.6184,25.8949 24.5044,27.0739 C24.4664,27.1319 24.3274,27.3429 24.1044,27.6429 C24.0354,27.5889 23.9864,27.5289 23.9614,27.4629" id="Fill-9" fill="#F44594"></path>
                <path d="M10.1733,29.0351 C10.3563,29.6601 10.4873,30.3931 10.3783,30.6131 C10.2803,30.8071 9.9383,30.9241 9.5793,30.9571 C9.6193,30.1141 9.6523,29.3261 9.6723,28.7521 C9.7973,28.8251 9.9663,28.9201 10.1733,29.0351" id="Fill-11" fill="#EC8026"></path>
                <path d="M9.5386,31.7153 C9.8356,31.7143 10.1296,31.6633 10.3816,31.5513 L9.2416,35.8623 L9.2076,35.8533 C9.3156,35.4363 9.4436,33.5523 9.5386,31.7153" id="Fill-13" fill="#EC8026"></path>
                <path d="M10.6069,21.3584 L10.4569,21.7304 C10.0089,21.2814 9.4419,21.2454 9.4419,21.2454 C9.4419,21.1224 9.4239,20.9874 9.3889,20.8414 C9.3489,20.6624 9.2889,20.4724 9.2149,20.2784 C10.0819,20.7294 10.6519,21.0534 10.6519,21.0534 L10.7239,21.0854 L10.6069,21.3584 Z" id="Fill-15" fill="#ECBA30"></path>
                <path d="M25.2939,24.4961 L25.2189,24.4321 C26.7169,22.6861 25.9799,21.6051 25.5209,21.1761 C25.3699,21.0341 25.2469,20.9621 25.2469,20.9621 C26.6189,19.4391 25.9779,18.1281 25.9779,18.1281 C26.1759,17.7461 26.3289,17.3931 26.4479,17.0681 C26.5029,16.9251 26.5479,16.7881 26.5869,16.6571 L26.6189,16.6651 C26.6189,16.6651 26.9789,16.2261 27.5179,15.6911 L27.5939,15.6911 C27.5939,15.6911 27.3949,19.5611 30.0779,20.9011 L30.0989,20.9131 C29.6069,21.9071 29.0029,22.9091 28.2939,23.8491 C28.2739,23.8381 28.2539,23.8271 28.2319,23.8191 C27.1529,23.4121 25.2939,24.4961 25.2939,24.4961" id="Fill-17" fill="#FFB500"></path>
                <path d="M3.0967,23.9184 C5.6907,21.5984 5.3847,18.9294 5.3047,18.4504 C5.5267,18.5374 5.7467,18.6304 5.9687,18.7264 C5.8657,19.1904 5.8107,19.8614 6.0597,20.5584 C6.0887,20.6404 6.1197,20.7174 6.1517,20.7874 L6.1527,20.7904 C6.6247,21.8414 7.3837,21.8604 7.3837,21.8604 C7.3837,21.8604 7.1767,22.7664 7.8607,23.7154 C8.0267,23.9434 8.2447,24.1754 8.5277,24.3974 C8.5277,24.3974 8.4927,24.4684 8.4527,24.5944 C8.3067,25.0414 8.0777,26.1784 9.0077,27.2234 C8.4307,26.8594 7.3637,26.2874 6.5847,26.4784 C6.4807,26.5024 6.3787,26.5724 6.2847,26.6774 C4.9317,25.7544 3.8527,24.8574 3.0087,24.0034 L3.0967,23.9184 Z" id="Fill-19" fill="#FFB500"></path>
                <path d="M12.0166,29.9863 C11.6106,29.7903 10.0036,28.9273 9.6726,28.7523 C9.4256,28.0133 9.7236,27.7723 9.8986,27.6373 L10.0816,27.6203 C11.4566,26.3813 11.3526,25.3423 11.1246,24.7813 C11.0066,24.4923 10.8566,24.3293 10.8566,24.3293 C11.1876,22.9103 10.8726,22.1423 10.4566,21.7303 L10.6066,21.3583 C10.6066,21.3583 12.3996,22.4653 17.0046,22.1353 C20.8456,21.8613 23.0146,20.3993 23.0146,20.3993 L23.0256,20.3993 C23.0396,20.7313 23.1556,21.1103 23.4956,21.4493 C23.4956,21.4493 23.4876,21.4903 23.4786,21.5623 C23.4536,21.7543 23.4166,22.1783 23.4846,22.6663 C23.5736,23.3353 23.8606,24.1253 24.6386,24.6043 L24.6856,24.6563 C24.0876,25.1743 23.2186,26.6293 23.2506,27.4443 C23.2656,27.7863 23.4136,28.0523 23.6406,28.2473 C23.4916,28.4323 23.3286,28.6293 23.1496,28.8323 C22.7926,29.2433 22.3726,29.6803 21.9156,30.0923 C21.4106,30.5413 20.8586,30.9583 20.2806,31.2653 C19.8686,31.4873 19.4446,31.6523 19.0166,31.7343 C18.6906,31.7983 18.3376,31.8183 17.9676,31.8053 C17.7016,31.7963 17.4276,31.7703 17.1456,31.7303 C16.8446,31.6863 16.5356,31.6253 16.2236,31.5513 C15.5626,31.3933 14.8846,31.1763 14.2266,30.9313 C13.4436,30.6393 12.6886,30.3063 12.0166,29.9863" id="Fill-21" fill="#4A90E2"></path>
                <path d="M36.1353,55.4135 C36.8303,55.2015 37.4813,54.7465 37.9833,53.9015 L38.0533,53.8875 C38.2733,55.1625 38.1723,56.0545 37.6183,56.3695 C35.4703,57.5885 32.4073,56.3695 32.4073,56.3695 C32.4073,56.3695 32.2253,58.0145 30.3053,58.2885 C28.3853,58.5625 26.5573,57.0085 26.5573,57.0085 C26.5573,57.0085 25.3693,58.7455 23.6333,59.0195 C21.8953,59.2935 19.7923,57.2825 19.7923,57.2825 C19.7923,57.2825 18.6963,59.3855 16.5023,59.1115 C15.0493,58.9305 13.2123,56.8265 13.2123,56.8265 C13.2123,56.8265 12.4813,58.4715 10.5603,58.3795 C8.6413,58.2885 6.7213,56.1855 6.7213,56.1855 C6.1733,56.8265 3.1563,57.4665 2.4253,55.2715 C2.3283,54.9825 2.3543,54.3725 2.4733,53.5285 L2.5163,53.5345 C2.5163,53.5345 3.3333,54.0315 4.3233,54.4135 C5.3703,54.8215 6.6123,55.1065 7.2703,54.5395 C7.2703,54.5395 8.3653,56.1525 9.9103,56.5045 C10.2023,56.5735 10.5133,56.5975 10.8353,56.5515 C12.8463,56.2775 13.1203,55.2715 13.1203,55.2715 C13.1203,55.2715 14.5223,56.8495 15.9713,57.3415 C16.3363,57.4665 16.7023,57.5195 17.0513,57.4665 C18.7873,57.1905 19.6103,55.6375 19.6103,55.6375 C19.6103,55.6375 21.2563,57.4665 23.2673,57.2825 C25.2783,57.0995 26.3753,55.2715 26.3753,55.2715 C26.3753,55.2715 29.0263,57.3755 30.3053,56.7345 C31.5853,56.0955 31.5853,54.4485 31.5853,54.4485 C31.5853,54.4485 34.0523,56.0435 36.1353,55.4135" id="Fill-23" fill="#4A90E2"></path>
                <path d="M23.1753,28.8545 L36.1353,55.4135 C34.0523,56.0435 31.5853,54.4485 31.5853,54.4485 L21.9153,30.0925 C22.3733,29.6805 22.7923,29.2435 23.1503,28.8325 L23.1753,28.8545 Z" id="Fill-25" fill="#FFB500"></path>
                <path d="M20.2808,31.2656 L26.3748,55.2716 C26.3748,55.2716 25.2788,57.0996 23.2668,57.2826 L19.0158,31.7336 C19.4448,31.6516 19.8678,31.4876 20.2808,31.2656" id="Fill-27" fill="#FFB500"></path>
                <path d="M17.9673,31.8051 L19.6103,55.6381 C19.6103,55.6381 18.7873,57.1911 17.0503,57.4671 C16.7023,57.5201 16.3363,57.4671 15.9713,57.3421 L16.3203,57.2821 L17.1423,31.7791 L17.1463,31.7301 C17.4273,31.7701 17.7013,31.7961 17.9673,31.8051" id="Fill-29" fill="#FFB500"></path>
                <path d="M16.2231,31.5512 L13.1201,55.2722 C13.1201,55.2722 12.8471,56.2772 10.8351,56.5512 C10.5131,56.5972 10.2021,56.5732 9.9101,56.5042 L9.9211,56.4612 L14.2171,30.9572 L14.2261,30.9312 C14.8851,31.1762 15.5621,31.3932 16.2231,31.5512" id="Fill-31" fill="#FFB500"></path>
                <path d="M10.9019,29.4262 C11.2339,29.6022 11.6099,29.7902 12.0169,29.9862 L7.2709,54.5402 C6.6119,55.1062 5.3699,54.8222 4.3229,54.4142 L4.3449,54.3582 L9.2409,35.8632 L10.3809,31.5512 C10.7439,31.3932 11.0169,31.1132 11.0879,30.6822 C11.1389,30.3682 11.0649,29.9392 10.9249,29.4982 C10.9169,29.4742 10.9099,29.4502 10.9019,29.4262" id="Fill-33" fill="#FFB500"></path>
                <path d="M27.4946,30.9575 C27.4946,30.9575 34.9526,45.1145 38.0536,53.8875 L37.9826,53.9015 C37.4816,54.7465 36.8306,55.2015 36.1356,55.4135 L23.1756,28.8545 L23.1496,28.8325 C23.3286,28.6295 23.4916,28.4325 23.6406,28.2475 C23.8726,28.4465 24.1866,28.5745 24.5206,28.6345 C24.6676,29.7845 25.1606,30.9715 26.3746,31.8015 C26.3746,31.8015 27.4266,31.4595 27.4946,30.9575" id="Fill-35" fill="#FF8F04"></path>
                <path d="M21.9155,30.0923 L31.5855,54.4483 C31.5855,54.4483 31.5855,56.0953 30.3055,56.7353 C29.0255,57.3753 26.3745,55.2723 26.3745,55.2723 L20.2805,31.2653 C20.8585,30.9583 21.4105,30.5413 21.9155,30.0923" id="Fill-37" fill="#FF8F04"></path>
                <path d="M19.0161,31.7339 L23.2671,57.2819 C21.2561,57.4669 19.6101,55.6379 19.6101,55.6379 L17.9671,31.8049 C18.3381,31.8179 18.6911,31.7979 19.0161,31.7339" id="Fill-39" fill="#FF8F04"></path>
                <path d="M17.146,31.7304 L17.143,31.7794 L16.32,57.2824 L15.972,57.3414 C14.522,56.8494 13.12,55.2724 13.12,55.2724 L16.223,31.5514 C16.536,31.6254 16.844,31.6864 17.146,31.7304" id="Fill-41" fill="#FF8F04"></path>
                <path d="M14.2266,30.9311 L14.2166,30.9571 L9.9216,56.4611 L9.9106,56.5041 C8.3656,56.1521 7.2706,54.5401 7.2706,54.5401 L12.0166,29.9861 C12.6886,30.3061 13.4436,30.6391 14.2266,30.9311" id="Fill-43" fill="#FF8F04"></path>
                <path d="M2.4731,53.5288 C3.2481,47.9878 8.0021,32.4198 8.0021,32.4198 L8.0961,32.4468 C7.7951,33.5378 7.2291,35.6388 7.3161,35.7558 C7.4311,35.9148 8.9611,36.0058 9.1681,35.9378 C9.1811,35.9348 9.1931,35.9058 9.2081,35.8528 L9.2411,35.8628 L4.3451,54.3578 L4.3231,54.4138 C3.3331,54.0308 2.5161,53.5348 2.5161,53.5348 L2.4731,53.5288 Z" id="Fill-45" fill="#FF8F04"></path>
                <path d="M8.6411,30.7285 C8.4361,30.3625 9.4951,28.1085 9.6921,28.0535 C9.6901,28.2165 9.6831,28.4565 9.6721,28.7515 C9.6521,29.3255 9.6191,30.1135 9.5791,30.9575 C9.1731,30.9935 8.7491,30.9215 8.6411,30.7285" id="Fill-47" fill="#4A4DBA"></path>
                <path d="M8.5005,28.9643 C8.5015,28.9623 8.5045,28.9623 8.5015,28.9603 C8.6115,28.8633 8.6905,28.7833 8.7295,28.7443 C8.2245,29.5593 7.7035,30.5883 7.9325,31.0483 C8.0255,31.2343 8.2285,31.3923 8.4875,31.5073 C8.4235,31.6033 8.3485,31.7173 8.2645,31.8393 C8.2645,31.8393 8.2665,31.8403 8.2645,31.8403 C7.5915,32.8553 6.4465,34.5683 6.2645,34.5683 C5.5705,34.5683 4.8715,32.9683 4.8715,32.9683 C6.4855,31.5803 8.1955,29.3663 8.5005,28.9643" id="Fill-49" fill="#0072B8"></path>
                <path d="M25.543,25.2236 C25.631,25.2796 26.088,25.5696 26.556,25.7956 C26.951,25.9896 27.355,26.1376 27.543,26.0606 C27.958,25.8926 28.234,24.8106 27.816,24.4526 C27.981,24.2546 28.14,24.0536 28.294,23.8486 C28.954,24.2326 29.22,26.5396 27.953,27.0316 C27.056,27.3806 25.985,26.0186 25.824,25.8066 C25.728,25.5946 25.631,25.3976 25.543,25.2236" id="Fill-51" fill="#686BDD"></path>
                <path d="M9.168,35.938 C8.961,36.006 7.431,35.915 7.316,35.756 C7.23,35.639 7.795,33.538 8.096,32.447 C8.177,32.151 8.239,31.928 8.265,31.841 C8.266,31.841 8.265,31.84 8.265,31.84 C8.349,31.718 8.424,31.604 8.488,31.508 C8.788,31.641 9.164,31.718 9.539,31.715 C9.444,33.553 9.315,35.437 9.208,35.853 C9.193,35.906 9.181,35.935 9.168,35.938" id="Fill-53" fill="#4A4DBA"></path>
                <path d="M5.2222,10.5796 C5.3292,9.9996 5.4892,9.4006 5.7272,8.8186 C5.6552,8.7446 5.9022,8.4226 5.9022,8.4226 C5.9592,8.3056 6.0172,8.1886 6.0812,8.0736 C6.4432,7.4146 6.8222,6.8386 7.2062,6.3346 C10.3122,2.2536 13.8822,2.8326 13.8822,2.8326 C17.8702,1.5846 20.5322,2.5496 22.2922,4.1786 C23.0662,4.8936 23.6662,5.7346 24.1272,6.5746 C24.1272,6.5756 24.1272,6.5776 24.1302,6.5776 C24.1332,6.5906 24.1352,6.5966 24.1352,6.5966 C24.1352,6.5966 24.1352,6.5936 24.1382,6.5936 C24.4422,7.1456 24.6852,7.6966 24.8812,8.2086 C24.9582,8.4146 25.0292,8.6146 25.0922,8.8066 L25.0942,8.8066 C25.2442,9.2656 25.3542,9.6746 25.4302,9.9966 C25.4662,10.1506 25.4952,10.2836 25.5192,10.3946 C25.5342,10.4686 25.5452,10.5326 25.5542,10.5846 L25.5552,10.5846 C25.5742,10.6946 25.5832,10.7546 25.5832,10.7546 C16.3202,9.2316 14.1252,3.4416 14.1252,3.4416 C14.1252,3.4416 13.5172,8.5616 10.7122,10.9976 C9.0432,12.4516 7.3722,13.3196 6.2962,13.7846 C5.5642,14.0996 5.1072,14.2286 5.1072,14.2286 C5.1072,14.2286 5.0472,13.8086 5.0292,13.1446 C5.0252,12.9466 5.0232,12.7276 5.0292,12.4896 C5.0382,12.1206 5.0642,11.7116 5.1142,11.2776 C5.1432,11.0506 5.1782,10.8176 5.2222,10.5796" id="Fill-55" fill="#060000"></path>
                <path d="M8.4878,31.5078 C8.2278,31.3918 8.0258,31.2348 7.9318,31.0488 C7.7038,30.5878 8.2248,29.5598 8.7288,28.7448 C8.8508,28.5478 8.9738,28.3608 9.0838,28.1998 C9.1838,28.0478 9.2758,27.9188 9.3488,27.8178 C9.4468,27.6778 9.5088,27.5968 9.5088,27.5968 C9.5938,27.4588 9.7348,27.4928 9.8988,27.6368 C10.2298,27.9308 10.6558,28.6878 10.9018,29.4258 C10.6268,29.2838 10.3798,29.1498 10.1738,29.0348 C10.0098,28.4868 9.8098,28.0228 9.6918,28.0538 C9.4948,28.1088 8.4358,30.3618 8.6408,30.7288 C8.7488,30.9218 9.1738,30.9938 9.5788,30.9578 C9.5668,31.2078 9.5538,31.4608 9.5388,31.7158 C9.1638,31.7178 8.7878,31.6408 8.4878,31.5078" id="Fill-57" fill="#13C2FE"></path>
                <path d="M5.7271,8.8188 C5.4891,9.4008 5.3291,9.9998 5.2221,10.5798 C5.1001,10.5398 4.9501,10.4858 4.7781,10.4238 L4.7801,10.4208 C3.4131,8.4448 1.9341,8.3458 1.6041,8.3498 C1.2031,7.5008 1.1821,6.3068 1.9841,6.0628 L1.9841,6.0328 C2.8101,6.0568 3.4911,6.7158 3.5341,6.7578 L3.5641,6.7348 C4.2211,7.5688 5.3421,8.5048 5.7271,8.8188" id="Fill-59" fill="#4A4DBA"></path>
                <path d="M10.3779,30.6128 C10.4869,30.3938 10.3559,29.6608 10.1729,29.0348 C10.3789,29.1498 10.6269,29.2838 10.9019,29.4258 C10.9099,29.4498 10.9169,29.4738 10.9249,29.4978 L10.3809,31.5508 C10.1289,31.6628 9.8359,31.7148 9.5389,31.7158 C9.5539,31.4608 9.5659,31.2078 9.5789,30.9578 C9.9379,30.9238 10.2809,30.8068 10.3779,30.6128" id="Fill-61" fill="#13C2FE"></path>
                <path d="M23.2505,27.4448 C23.2185,26.6288 24.0875,25.1738 24.6855,24.6568 C24.8825,24.4868 25.0515,24.4178 25.1465,24.5088 C25.1655,24.5258 25.1795,24.5478 25.1915,24.5738 C25.1915,24.5738 25.2425,24.6638 25.3255,24.8148 C25.3835,24.9218 25.4595,25.0608 25.5415,25.2238 L25.5425,25.2238 C25.6305,25.3978 25.7285,25.5948 25.8245,25.8068 C25.8645,25.8948 25.9045,25.9838 25.9445,26.0728 C26.3005,26.8888 26.5925,27.8068 26.3365,28.1938 C26.2635,28.3028 26.1495,28.3938 26.0085,28.4688 C25.6305,28.6678 25.0515,28.7338 24.5215,28.6348 C24.4855,28.3628 24.4715,28.0938 24.4695,27.8328 C24.9165,27.9878 25.5145,28.0068 25.6725,27.7888 C25.9215,27.4508 25.1445,25.0848 24.9545,25.0058 C24.7135,24.9068 23.8085,27.0298 23.9615,27.4628 C23.9865,27.5288 24.0355,27.5898 24.1045,27.6428 C23.9765,27.8178 23.8205,28.0228 23.6405,28.2468 C23.4135,28.0518 23.2655,27.7858 23.2505,27.4448" id="Fill-63" fill="#13C2FE"></path>
                <path d="M29.2544,29.0825 C29.2544,29.0825 28.9794,30.4775 27.4944,30.9575 C27.4944,30.9575 26.2634,29.7495 26.0084,28.4685 C26.1504,28.3935 26.2634,28.3025 26.3364,28.1935 C26.5924,27.8065 26.3004,26.8885 25.9444,26.0735 C26.5674,26.9535 28.1844,29.0825 29.2544,29.0825" id="Fill-65" fill="#0072B8"></path>
                <path d="M27.4946,30.9575 C27.4266,31.4595 26.3746,31.8015 26.3746,31.8015 C25.1606,30.9715 24.6676,29.7845 24.5206,28.6345 C25.0516,28.7335 25.6306,28.6675 26.0086,28.4685 C26.2636,29.7495 27.4946,30.9575 27.4946,30.9575" id="Fill-67" fill="#4A4DBA"></path>
                <path d="M24.5044,27.0737 C24.6184,25.8947 24.9544,25.0057 24.9544,25.0057 C25.1444,25.0847 25.9214,27.4507 25.6724,27.7887 C25.5144,28.0067 24.9164,27.9877 24.4694,27.8327 C24.4694,27.5717 24.4824,27.3167 24.5044,27.0737" id="Fill-69" fill="#4A4DBA"></path>
                <path d="M31.0679,13.8633 C32.1579,14.2643 31.7699,17.5393 30.0989,20.9123 L30.0779,20.9013 C27.3949,19.5613 27.5939,15.6913 27.5939,15.6913 L27.5179,15.6913 C28.4819,14.7353 30.0119,13.4713 31.0679,13.8633" id="Fill-71" fill="#F7C9BC"></path>
                <path d="M29.665,9.3388 C29.694,9.6688 29.691,9.9808 29.64,10.2558 L29.62,10.2528 C29.62,10.2528 29.476,10.0878 29.172,9.9138 C28.694,9.6458 27.827,9.3598 26.503,9.6638 C26.196,9.7328 25.865,9.8358 25.506,9.9778 L25.43,9.9968 C25.354,9.6748 25.245,9.2658 25.094,8.8058 L25.14,8.7898 C25.14,8.7898 26.52,8.4848 27.777,7.9328 L27.791,7.9668 C27.791,7.9668 29.574,8.3318 29.665,9.3388" id="Fill-73" fill="#686BDD"></path>
                <path d="M28.1812,5.144 C28.4012,4.23 28.1722,3.059 27.3342,2.985 L27.3292,2.956 C27.5292,2.907 27.7442,2.895 27.9732,2.939 C29.1632,3.168 30.4882,5.362 29.5742,6.687 C29.2322,7.182 28.5272,7.602 27.7772,7.933 C26.5202,8.484 25.1402,8.79 25.1402,8.79 L25.0942,8.806 L25.0922,8.806 C25.0292,8.614 24.9582,8.415 24.8812,8.208 C24.9862,8.149 25.2162,8.019 25.5082,7.834 C26.2642,7.362 27.4392,6.546 27.9292,5.773 C28.0392,5.595 28.1262,5.378 28.1812,5.144" id="Fill-75" fill="#13C2FE"></path>
                <path d="M29.6196,10.2524 L29.6396,10.2554 C29.5436,10.8204 29.2586,11.2414 28.7056,11.3954 C27.9836,11.5954 25.9956,10.6364 25.5186,10.3954 C25.4956,10.2834 25.4666,10.1504 25.4296,9.9964 L25.5066,9.9784 C25.8646,9.8354 26.1956,9.7324 26.5026,9.6634 L26.5116,9.7034 C27.8366,10.3434 29.1626,9.9324 29.1626,9.9324 L29.1716,9.9144 C29.4756,10.0874 29.6196,10.2524 29.6196,10.2524" id="Fill-77" fill="#4A4DBA"></path>
                <path d="M28.2324,23.8193 C28.2544,23.8263 28.2744,23.8383 28.2944,23.8493 C28.1394,24.0533 27.9804,24.2543 27.8164,24.4523 C27.7944,24.4343 27.7714,24.4193 27.7464,24.4043 C27.2284,24.1113 25.3494,24.8013 25.3494,24.8013 L25.3254,24.8143 C25.2424,24.6633 25.1914,24.5743 25.1914,24.5743 C25.1794,24.5473 25.1654,24.5253 25.1464,24.5083 L25.2944,24.4963 C25.2944,24.4963 27.1534,23.4123 28.2324,23.8193" id="Fill-79" fill="#686BDD"></path>
                <path d="M25.9658,3.9873 C26.0028,3.9323 26.5278,3.1503 27.3288,2.9563 L27.3348,2.9853 C28.1718,3.0583 28.4018,4.2303 28.1808,5.1443 C27.8568,5.2083 26.4328,5.6123 25.5068,7.8303 L25.5078,7.8343 C25.2158,8.0183 24.9858,8.1493 24.8818,8.2083 C24.6858,7.6963 24.4418,7.1453 24.1378,6.5933 C24.2008,6.5173 25.3748,5.1023 25.9308,3.9683 L25.9658,3.9873 Z" id="Fill-81" fill="#0072B8"></path>
                <path d="M26.7495,14.4682 C26.8405,14.8432 26.9155,15.5702 26.5865,16.6562 C26.5485,16.7882 26.5025,16.9252 26.4475,17.0682 C26.0855,17.3562 24.2745,18.7682 23.1065,19.0952 L23.0565,19.0992 C23.0345,18.8892 23.0885,18.6692 23.1155,18.5742 C24.0655,17.6632 24.6635,16.5602 25.0345,15.4732 L25.0725,15.4862 C25.8185,15.3362 26.6435,14.5702 26.7495,14.4682" id="Fill-83" fill="#060000"></path>
                <path d="M25.6133,10.5717 C25.6133,10.5717 27.5313,12.3697 26.6493,14.1687 C26.6493,14.1687 25.6653,14.7777 25.1863,15.0507 L25.1723,15.0457 C25.8283,12.8047 25.5833,10.7547 25.5833,10.7547 C25.5833,10.7547 25.5743,10.6947 25.5553,10.5847 L25.6133,10.5717 Z" id="Fill-85" fill="#060000"></path>
                <path d="M26.6489,14.1689 C26.6489,14.1689 26.7029,14.2669 26.7499,14.4679 C26.6439,14.5699 25.8189,15.3359 25.0729,15.4859 L25.0349,15.4729 C25.0839,15.3309 25.1289,15.1859 25.1719,15.0449 L25.1859,15.0509 C25.6659,14.7769 26.6489,14.1689 26.6489,14.1689" id="Fill-87" fill="#686BDD"></path>
                <path d="M25.2871,1.705 C25.9031,2.199 26.3241,2.868 26.1461,3.442 C26.0971,3.605 26.0221,3.782 25.9311,3.969 C25.3751,5.102 24.2011,6.517 24.1381,6.594 C24.1351,6.588 24.1321,6.583 24.1301,6.577 C24.1271,6.577 24.1271,6.576 24.1271,6.574 C24.0951,6.484 23.9731,6.115 23.8911,5.592 L23.9061,5.591 C24.9831,3.602 24.2981,3.003 24.1591,2.91 L24.1591,2.908 C24.5581,1.998 25.1861,1.751 25.1861,1.751 L25.2871,1.705 Z" id="Fill-89" fill="#FF8F04"></path>
                <path d="M26.4478,17.0678 C26.3288,17.3938 26.1758,17.7468 25.9778,18.1278 C25.9778,18.1278 24.9818,18.9598 23.2208,19.4618 C23.1158,19.3698 23.0688,19.2368 23.0568,19.0988 L23.1068,19.0948 C24.2748,18.7688 26.0858,17.3568 26.4478,17.0678" id="Fill-91" fill="#13C2FE"></path>
                <path d="M25.978,18.1279 C25.978,18.1279 26.619,19.4389 25.247,20.9619 C25.247,20.9619 23.861,21.0149 23.496,21.5639 L23.479,21.5619 C23.488,21.4909 23.496,21.4499 23.496,21.4499 C23.155,21.1099 23.04,20.7319 23.026,20.3989 C23,19.8759 23.221,19.4609 23.221,19.4609 C24.981,18.9599 25.978,18.1279 25.978,18.1279" id="Fill-93" fill="#060000"></path>
                <path d="M23.1157,18.5747 C22.9337,18.7497 22.7417,18.9167 22.5347,19.0737 C22.5347,19.0737 16.0857,21.7537 11.1727,20.0247 C9.8237,19.5467 8.5897,18.7377 7.6397,17.4477 C7.7607,17.1057 7.8897,16.5157 7.8647,15.6007 C7.8237,14.1727 6.6157,13.8447 6.2957,13.7837 C7.3727,13.3197 9.0437,12.4517 10.7127,10.9977 C13.5167,8.5617 14.1257,3.4417 14.1257,3.4417 C14.1257,3.4417 16.3197,9.2317 25.5827,10.7547 C25.5827,10.7547 25.8287,12.8047 25.1717,15.0457 C25.1297,15.1857 25.0837,15.3307 25.0347,15.4727 C24.6637,16.5597 24.0657,17.6637 23.1157,18.5747" id="Fill-95" fill="#F7C9BC"></path>
                <path d="M25.2192,24.4321 L25.2942,24.4961 L25.1462,24.5091 C25.0512,24.4181 24.8832,24.4871 24.6852,24.6571 L24.6382,24.6041 C23.8612,24.1251 23.5732,23.3351 23.4852,22.6661 C24.0202,21.4191 25.4832,21.2221 25.4832,21.2221 L25.5202,21.1761 C25.9792,21.6051 26.7172,22.6861 25.2192,24.4321" id="Fill-97" fill="#060000"></path>
                <path d="M25.5205,21.1762 L25.4825,21.2212 C25.4825,21.2212 24.0205,21.4192 23.4845,22.6662 C23.4165,22.1782 23.4535,21.7542 23.4785,21.5622 L23.4955,21.5632 C23.8605,21.0152 25.2475,20.9622 25.2475,20.9622 C25.2475,20.9622 25.3695,21.0332 25.5205,21.1762" id="Fill-99" fill="#686BDD"></path>
                <g id="Group-103" transform="translate(22.000000, 0.136200)">
                    <mask id="mask-2" fill="white">
                        <use xlink:href="#path-1"></use>
                    </mask>
                    <g id="Clip-102"></g>
                    <path d="M2.1587,2.772 L2.1587,2.774 C2.1167,2.867 2.0777,2.97 2.0437,3.078 C1.7627,3.946 1.7937,4.816 1.8917,5.456 C1.9727,5.979 2.0947,6.348 2.1267,6.438 C1.6657,5.599 1.0657,4.758 0.2927,4.043 C0.2377,3.48 0.0947,1.288 1.1297,0.93 C1.7427,0.717 2.6277,1.041 3.2867,1.569 L3.1857,1.615 C3.1857,1.615 2.5577,1.862 2.1587,2.772" id="Fill-101" fill="#F69F04" mask="url(#mask-2)"></path>
                </g>
                <path d="M24.4697,27.8325 C24.4717,28.0945 24.4857,28.3635 24.5207,28.6345 C24.1867,28.5745 23.8727,28.4465 23.6397,28.2475 C23.8207,28.0225 23.9757,27.8175 24.1047,27.6425 C24.1967,27.7185 24.3247,27.7825 24.4697,27.8325" id="Fill-104" fill="#13C2FE"></path>
                <path d="M11.1245,24.7812 C11.3525,25.3422 11.4565,26.3812 10.0815,27.6202 L9.8985,27.6372 C9.7345,27.4922 9.5935,27.4592 9.5095,27.5962 L9.4185,27.5052 C9.4185,27.5052 9.2605,27.3862 9.0105,27.2272 C9.0105,27.2252 9.0085,27.2252 9.0075,27.2232 C8.0785,26.1782 8.3065,25.0412 8.4535,24.5942 L8.4795,24.6042 C8.4795,24.6042 10.5605,25.1522 11.1095,24.7862 L11.1245,24.7812 Z" id="Fill-106" fill="#060000"></path>
                <path d="M11.1245,24.7812 L11.1095,24.7862 C10.5605,25.1522 8.4795,24.6042 8.4795,24.6042 L8.4535,24.5942 C8.4935,24.4692 8.5275,24.3972 8.5275,24.3972 C8.2445,24.1762 8.0265,23.9442 7.8605,23.7152 L7.8645,23.7132 C7.8645,23.7132 9.3505,24.5572 10.8565,24.3292 C10.8565,24.3292 11.0065,24.4922 11.1245,24.7812" id="Fill-108" fill="#13C2FE"></path>
                <path d="M10.9248,29.498 C11.0648,29.939 11.1388,30.368 11.0878,30.683 C11.0168,31.114 10.7438,31.394 10.3818,31.551 L10.9248,29.498 Z" id="Fill-110" fill="#13C2FE"></path>
                <path d="M10.457,21.7299 C10.873,22.1429 11.187,22.9109 10.856,24.3299 C9.351,24.5579 7.865,23.7129 7.865,23.7129 L7.861,23.7149 C7.176,22.7669 7.384,21.8609 7.384,21.8609 C7.384,21.8609 9.12,21.7019 9.442,21.2449 C9.442,21.2449 10.009,21.2819 10.457,21.7299" id="Fill-112" fill="#060000"></path>
                <path d="M9.0107,27.2275 C9.2607,27.3865 9.4187,27.5055 9.4187,27.5055 L9.5097,27.5965 C9.5097,27.5965 9.4477,27.6785 9.3487,27.8175 L9.3267,27.8035 C9.3267,27.8035 7.5447,26.8885 6.9957,27.1175 C6.9867,27.1215 6.9777,27.1255 6.9697,27.1295 C6.7347,26.9785 6.5057,26.8265 6.2847,26.6775 C6.3787,26.5725 6.4807,26.5025 6.5847,26.4775 C7.3637,26.2875 8.4307,26.8595 9.0077,27.2235 C9.0087,27.2255 9.0107,27.2255 9.0107,27.2275" id="Fill-114" fill="#686BDD"></path>
                <path d="M9.3892,20.8413 C9.4242,20.9873 9.4422,21.1223 9.4422,21.2453 C9.1202,21.7023 7.3842,21.8613 7.3842,21.8613 C7.3842,21.8613 6.6252,21.8413 6.1532,20.7903 C6.2182,20.8193 7.7622,21.5273 9.3272,20.8563 L9.3892,20.8413 Z" id="Fill-116" fill="#686BDD"></path>
                <path d="M9.3892,20.8413 L9.3272,20.8563 C7.7622,21.5273 6.2182,20.8193 6.1532,20.7903 L6.1512,20.7873 C6.1202,20.7173 6.0892,20.6403 6.0602,20.5583 C5.8112,19.8613 5.8662,19.1903 5.9682,18.7263 C7.1602,19.2373 8.3402,19.8223 9.2152,20.2783 C9.2882,20.4723 9.3492,20.6623 9.3892,20.8413" id="Fill-118" fill="#060000"></path>
                <path d="M8.3892,18.8286 L8.4132,18.8136 C8.4112,18.7606 8.3982,18.7066 8.3782,18.6506 L8.4132,18.6386 C8.4132,18.6386 8.9112,19.4726 9.2152,20.2786 C8.3402,19.8226 7.1602,19.2376 5.9682,18.7256 C6.0552,18.3366 6.1732,18.0896 6.1732,18.0896 L6.2212,17.9886 C7.5612,18.6236 8.1622,18.4606 8.3892,18.8286" id="Fill-120" fill="#060000"></path>
                <path d="M8.502,28.9604 C8.504,28.9614 8.502,28.9614 8.501,28.9644 C8.065,29.3604 7.146,30.0624 6.47,29.6984 C5.413,29.1314 5.714,27.3004 6.285,26.6774 C6.506,26.8264 6.734,26.9784 6.97,27.1294 C6.451,27.3844 6.592,28.5624 6.996,28.7844 C7.305,28.9584 8.341,28.5344 8.833,28.3144 C8.96,28.2584 9.049,28.2164 9.084,28.1994 C8.974,28.3604 8.851,28.5474 8.729,28.7444 C8.69,28.7834 8.612,28.8634 8.502,28.9604" id="Fill-122" fill="#686BDD"></path>
                <path d="M8.4131,18.8139 L8.3891,18.8289 C8.1631,18.4609 7.5611,18.6239 6.2211,17.9889 C6.0971,17.9319 5.9671,17.8669 5.8291,17.7939 C5.5371,17.6359 5.3251,17.4239 5.1731,17.1829 L5.2131,17.1539 C5.2131,17.1539 6.3541,17.7729 7.4441,17.9149 C7.4881,17.9219 7.5321,17.9279 7.5751,17.9309 C7.8651,17.9579 8.2611,18.3179 8.3781,18.6509 C8.3981,18.7069 8.4111,18.7609 8.4131,18.8139" id="Fill-124" fill="#13C2FE"></path>
                <path d="M7.6396,17.4477 C7.5426,17.7217 7.4526,17.8397 7.4526,17.8397 L7.4436,17.9147 C6.3536,17.7727 5.2126,17.1537 5.2126,17.1537 L5.1726,17.1827 C4.4656,16.0437 5.1076,14.2287 5.1076,14.2287 C5.1076,14.2287 5.5636,14.0987 6.2956,13.7837 C6.6156,13.8437 7.8236,14.1727 7.8646,15.6007 C7.8896,16.5157 7.7606,17.1057 7.6396,17.4477" id="Fill-126" fill="#060000"></path>
                <path d="M5.897,7.9707 L5.897,7.9697 C5.868,7.3147 5.726,6.4227 5.251,5.6007 C5.191,5.4977 5.13,5.4017 5.067,5.3147 C4.489,4.5187 3.83,4.4077 3.83,4.4077 L3.756,4.3457 C4.288,3.7117 5.067,3.2317 5.698,3.3107 C6.946,3.4637 7.179,6.3127 7.179,6.3127 L7.206,6.3347 C6.822,6.8387 6.443,7.4147 6.082,8.0737 C6.018,8.1887 5.959,8.3057 5.902,8.4227 C5.907,8.2907 5.904,8.1387 5.897,7.9707" id="Fill-128" fill="#13C2FE"></path>
                <path d="M5.897,7.9707 C5.904,8.1387 5.907,8.2907 5.902,8.4227 C5.84,8.5537 5.782,8.6857 5.727,8.8187 C5.342,8.5047 4.221,7.5687 3.564,6.7347 C3.436,6.5717 3.327,6.4107 3.243,6.2617 C2.945,5.7257 3.233,4.9617 3.756,4.3457 L3.83,4.4077 C3.83,4.4077 4.489,4.5187 5.067,5.3147 C4.914,5.7337 4.806,6.6487 5.897,7.9697 L5.897,7.9707 Z" id="Fill-130" fill="#0072B8"></path>
                <path d="M5.3052,18.4502 C5.3852,18.9292 5.6912,21.5982 3.0972,23.9182 L3.0082,24.0042 C-0.3878,20.5752 -0.0118,17.8882 1.5712,17.5802 C2.3762,17.4242 3.8092,17.8482 5.3052,18.4502" id="Fill-132" fill="#F7C9BC"></path>
                <path d="M1.6045,8.3496 C1.7065,8.5666 1.8365,8.7626 1.9825,8.9126 C2.6225,9.5666 3.9385,10.1186 4.7785,10.4246 C4.9505,10.4866 5.0995,10.5396 5.2225,10.5796 C5.1785,10.8176 5.1435,11.0506 5.1145,11.2776 C4.6655,11.2636 3.6025,11.2046 2.5825,10.9916 C1.7805,10.8246 1.0015,10.5606 0.5645,10.1476 C-0.6055,9.0416 0.2355,6.6216 1.3505,6.1496 C1.5655,6.0586 1.7805,6.0256 1.9845,6.0336 L1.9845,6.0626 C1.1825,6.3076 1.2025,7.5006 1.6045,8.3496" id="Fill-134" fill="#686BDD"></path>
                <path d="M5.1143,11.2778 C5.0643,11.7118 5.0383,12.1208 5.0293,12.4898 C4.7253,12.4458 4.4453,12.4258 4.1853,12.4228 C2.8273,12.3988 2.0373,12.8608 1.6283,13.2228 C1.3663,13.4558 1.2603,13.6448 1.2603,13.6448 L1.2403,13.6548 C1.1353,13.3928 1.0673,13.0898 1.0273,12.7598 C0.9063,11.7578 2.5733,11.0298 2.5733,11.0298 L2.5823,10.9908 C3.6023,11.2048 4.6653,11.2638 5.1143,11.2778" id="Fill-136" fill="#F69F04"></path>
                <path d="M5.0288,12.4897 C5.0238,12.7277 5.0258,12.9467 5.0288,13.1447 C4.3788,13.6437 3.0268,14.6127 2.3928,14.5727 C1.8208,14.5367 1.4538,14.1847 1.2408,13.6547 L1.2598,13.6447 C1.2598,13.6447 1.3668,13.4557 1.6288,13.2227 L1.6408,13.2377 C1.6408,13.2377 3.0238,13.3647 4.1858,12.4627 L4.1858,12.4227 C4.4458,12.4267 4.7248,12.4467 5.0288,12.4897" id="Fill-138" fill="#FF8F04"></path>
                <path d="M12.9243,12.9951 C12.9243,12.4721 12.5003,12.0491 11.9773,12.0491 C11.4553,12.0491 11.0313,12.4721 11.0313,12.9951 C11.0313,13.5171 11.4553,13.9401 11.9773,13.9401 C12.5003,13.9401 12.9243,13.5171 12.9243,12.9951" id="Fill-140" fill="#060000"></path>
                <path d="M21.3794,11.8525 C21.3794,11.3305 20.9564,10.9065 20.4334,10.9065 C19.9104,10.9065 19.4874,11.3305 19.4874,11.8525 C19.4874,12.3735 19.9104,12.7975 20.4334,12.7975 C20.9564,12.7975 21.3794,12.3735 21.3794,11.8525" id="Fill-142" fill="#060000"></path>
                <path d="M16.1362,10.6635 C15.7712,10.7545 15.3142,13.5885 15.4062,13.8175 C15.4972,14.0455 17.5532,13.7715 17.6452,13.4965 C17.7372,13.2235 16.5022,10.5715 16.1362,10.6635" id="Fill-144" fill="#C61257"></path>
                <path d="M14.147,15.8525 C14.147,15.8525 14.17,15.8635 14.215,15.8825 C14.255,15.8955 14.315,15.9145 14.391,15.9375 C14.476,15.9565 14.568,15.9945 14.688,16.0115 C14.809,16.0245 14.933,16.0655 15.083,16.0715 C15.23,16.0755 15.383,16.1125 15.554,16.1025 C15.724,16.0945 15.899,16.1125 16.084,16.0915 C16.268,16.0745 16.457,16.0555 16.651,16.0355 C16.843,15.9985 17.038,15.9595 17.233,15.9205 L17.38,15.8955 C17.391,15.8955 17.47,15.8705 17.512,15.8585 C17.614,15.8305 17.714,15.8005 17.813,15.7715 C17.914,15.7455 18.013,15.7175 18.111,15.6915 C18.198,15.6595 18.284,15.6255 18.369,15.5945 C18.536,15.5285 18.705,15.4815 18.853,15.3985 C19.002,15.3235 19.155,15.2655 19.273,15.1835 C19.527,15.0405 19.726,14.8985 19.841,14.7845 C19.968,14.6715 20.014,14.6125 20.013,14.6185 C20.065,14.5135 20.192,14.4715 20.298,14.5225 C20.402,14.5755 20.444,14.7035 20.392,14.8085 C20.393,14.8055 20.376,14.8485 20.348,14.8985 C20.319,14.9475 20.283,15.0295 20.22,15.1075 C20.161,15.1925 20.082,15.2905 19.984,15.3905 C19.891,15.4995 19.773,15.6025 19.638,15.7085 C19.508,15.8245 19.352,15.9185 19.185,16.0195 C19.024,16.1285 18.833,16.2155 18.635,16.3015 C18.537,16.3455 18.437,16.3895 18.335,16.4335 C18.238,16.4645 18.14,16.4975 18.042,16.5295 L17.742,16.6225 C17.683,16.6395 17.663,16.6505 17.571,16.6725 L17.407,16.7055 C17.188,16.7455 16.968,16.7845 16.753,16.8235 C16.533,16.8415 16.313,16.8465 16.104,16.8555 C15.894,16.8665 15.686,16.8285 15.494,16.8125 C15.3,16.8045 15.12,16.7395 14.955,16.7055 C14.789,16.6745 14.643,16.6005 14.514,16.5535 C14.384,16.5055 14.276,16.4375 14.187,16.3945 C14.097,16.3485 14.025,16.2905 13.979,16.2615 C13.939,16.2285 13.918,16.2105 13.918,16.2105 C13.827,16.1375 13.812,16.0035 13.886,15.9125 C13.947,15.8355 14.05,15.8125 14.135,15.8485 L14.147,15.8525 Z" id="Fill-146" fill="#1E120D"></path>
                <path d="M13.0762,16.6059 C13.0762,15.4429 12.1342,14.5019 10.9722,14.5019 C9.8102,14.5019 8.8682,15.4429 8.8682,16.6059 C8.8682,17.7669 9.8102,18.7099 10.9722,18.7099 C12.1342,18.7099 13.0762,17.7669 13.0762,16.6059" id="Fill-148" fill="#ECA1BB"></path>
                <path d="M25.0117,14.7773 C25.0117,13.6873 24.1267,12.8043 23.0387,12.8043 C21.9487,12.8043 21.0657,13.6873 21.0657,14.7773 C21.0657,15.8663 21.9487,16.7493 23.0387,16.7493 C24.1267,16.7493 25.0117,15.8663 25.0117,14.7773" id="Fill-150" fill="#ECA1BB"></path>
                <path d="M18.4336,26.624 C18.3716,26.838 19.2256,28.431 20.0636,28.443 C20.6476,28.452 21.3076,27.428 20.7886,26.894 C20.2716,26.359 18.4956,26.411 18.4336,26.624" id="Fill-152" fill="#D7E9FF"></path>
                <path d="M18.5269,25.8227 C18.6809,25.9837 20.4869,26.0357 20.9159,25.3147 C21.2149,24.8117 20.6549,23.7307 19.9339,23.9137 C19.2129,24.0967 18.3719,25.6627 18.5269,25.8227" id="Fill-154" fill="#D7E9FF"></path>
                <path d="M16.6909,26.0039 C16.7369,25.7869 15.7689,24.2599 14.9319,24.3099 C14.3479,24.3429 13.7649,25.4119 14.3209,25.9079 C14.8779,26.4019 16.6449,26.2209 16.6909,26.0039" id="Fill-156" fill="#D7E9FF"></path>
                <path d="M17.5977,25.498 C17.8107,25.436 18.6967,23.862 18.2597,23.147 C17.9537,22.649 16.7357,22.641 16.5617,23.365 C16.3897,24.089 17.3847,25.56 17.5977,25.498" id="Fill-158" fill="#D7E9FF"></path>
                <path d="M16.9839,27.1098 C16.8599,26.9248 15.0909,26.5518 14.5419,27.1858 C14.1589,27.6268 14.5169,28.7908 15.2599,28.7388 C16.0029,28.6858 17.1069,27.2948 16.9839,27.1098" id="Fill-160" fill="#D7E9FF"></path>
                <path d="M17.6084,27.2871 C17.3904,27.3361 16.4054,28.8511 16.7974,29.5921 C17.0714,30.1091 18.2864,30.1941 18.5054,29.4821 C18.7254,28.7701 17.8254,27.2381 17.6084,27.2871" id="Fill-162" fill="#D7E9FF"></path>
                <path d="M18.2363,26.2348 C18.2693,26.5868 18.0113,26.8998 17.6603,26.9318 C17.3073,26.9648 16.9953,26.7058 16.9623,26.3548 C16.9293,26.0028 17.1883,25.6908 17.5403,25.6578 C17.8913,25.6248 18.2033,25.8828 18.2363,26.2348" id="Fill-164" fill="#D7E9FF"></path>
            </g>
        </g>
    </g>
</svg>