<?xml version="1.0" encoding="UTF-8" standalone="no"?>
<svg width="96px" height="48px" viewBox="0 0 96 48" version="1.1" xmlns="http://www.w3.org/2000/svg" xmlns:xlink="http://www.w3.org/1999/xlink">
    <!-- Generator: sketchtool 47.1 (45422) - http://www.bohemiancoding.com/sketch -->
    <title>10B4A628-262B-4B77-A8CE-292278451F78</title>
    <desc>Created with sketchtool.</desc>
    <defs>
        <polygon id="path-1" points="0.0353425565 0.0286270403 19.9882634 0.0286270403 19.9882634 7.33980683 0.0353425565 7.33980683 0.0353425565 0.0286270403"></polygon>
    </defs>
    <g id="Symbols" stroke="none" stroke-width="1" fill="none" fill-rule="evenodd">
        <g id="Logo_mexicanfiesta_movil">
            <g id="Logo" transform="translate(2.000000, 2.000000)">
                <path d="M37.8395232,33.6458555 C37.9503723,33.4723714 38.1051305,33.4915278 38.1938098,33.6458555 C38.370953,33.9527891 38.3044436,34.3572267 38.0388363,34.8387206 C37.3741724,36.0302943 35.9785504,36.8378781 34.7383323,36.8378781 C33.0549332,36.8378781 32.6337067,35.6071307 33.2542462,34.0307063 C33.8082763,32.6266899 35.2699773,30.3569745 36.0893994,29.35675 C36.2887125,29.126227 36.4441164,29.0685425 36.6210445,29.2411657 C36.9533764,29.5493906 37.1305197,30.376131 36.5988746,31.3376121 C36.1339543,32.1839393 35.2036831,33.4915278 34.7383323,34.4534394 C34.206472,35.569033 34.2508116,36.3187171 34.9598152,36.2806194 C35.9565958,36.2423066 37.1748593,34.9723852 37.8395232,33.6458555 Z" id="Fill-1" fill="#FFFFFF"></path>
                <path d="M37.696797,27.4043859 C37.9850046,27.1359805 38.1401932,26.6161737 37.8517704,26.1163843 C37.5642086,25.5967928 36.921284,25.3658393 36.5672127,25.6930054 C36.2127109,26.0203869 36.1020771,26.596802 36.4563636,27.1161783 C36.7884804,27.6159677 37.4090199,27.6740827 37.696797,27.4043859" id="Fill-3" fill="#FFFFFF"></path>
                <path d="M61.8708258,27.8950921 C62.4022556,26.8952981 62.4022556,26.2607679 62.1586029,25.7215894 C62.0477539,25.4912817 61.826271,25.4721252 61.6267427,25.7215894 C61.2511473,26.1451835 60.6310382,27.0491953 59.9442045,28.1066739 C59.34605,28.1643585 58.7252953,28.2031018 58.1054015,28.1839454 C57.7732847,28.1643585 57.6398354,28.2993145 57.8617487,28.5683656 C58.0391073,28.7801627 58.548152,29.0685855 59.3014952,29.0685855 C58.3486237,30.5877558 57.4183525,32.2035693 56.9536474,33.1644047 C55.8903573,35.3764355 57.0642812,36.7996083 58.5259822,36.837706 C60.2978453,36.8953905 61.760192,35.2031665 62.0477539,34.6456926 C62.2692368,34.2035878 62.3803011,33.8574804 62.2692368,33.5492554 C62.1807727,33.2802043 61.93712,33.3183019 61.8045316,33.5492554 C60.984679,34.9918 59.7222911,36.3577187 58.7252953,36.3187601 C57.7952393,36.2804473 57.5518018,35.0882279 58.2823295,33.6842115 C59.1241367,32.0686132 60.386955,30.2033356 61.2511473,28.9146883 C61.8045316,28.8374168 62.4902892,28.7801627 62.9784555,28.8374168 C63.3101418,28.8374168 63.3998972,28.7035369 63.2440628,28.4725834 C63.0671348,28.2222583 62.7350181,27.8759357 61.8708258,27.8950921" id="Fill-5" fill="#FFFFFF"></path>
                <g id="Group-9" transform="translate(32.931858, 0.186614)">
                    <mask id="mask-2" fill="white">
                        <use xlink:href="#path-1"></use>
                    </mask>
                    <g id="Clip-8"></g>
                    <path d="M0.482182675,7.33846645 L0.539006273,7.33911217 C0.662985034,7.33911217 1.00564855,7.33308543 1.51189516,7.27755327 C2.09928759,7.21491817 3.03429408,7.05908376 4.15354678,6.67294157 C4.73340578,6.4688932 5.29841316,6.22115091 5.83371729,5.93574147 C6.45081296,5.60233331 7.03024147,5.14516163 7.51582496,4.74223066 L7.60902427,4.66474393 C9.27757176,3.27213528 11.0031581,1.83195839 12.881135,1.83195839 C13.8025813,1.83195839 14.6932482,2.1688104 15.6045782,2.86210136 C16.0895159,3.23123951 16.5354951,3.60769585 16.91518,3.93120293 C17.4367087,4.37933449 17.8882841,4.78872269 18.2877713,5.14989693 C18.5030122,5.34447471 18.6969442,5.52054177 18.8676303,5.67099516 L19.6248478,6.34254678 C19.6511072,6.36557756 19.7204147,6.41874206 19.801991,6.41874206 C19.8512812,6.41874206 19.8971275,6.39872466 19.9307051,6.36277943 C20.0105595,6.27625259 19.997645,6.16561876 19.9505073,6.09093017 C19.920804,6.02205308 19.7740097,5.68929064 19.4845107,5.17572584 C19.3118875,4.8666399 19.10418,4.52742024 18.8644017,4.166246 C18.636892,3.8289635 18.3273756,3.38319959 17.9519955,2.92731935 C17.5346433,2.41181738 17.1231027,1.9677754 16.6941276,1.56957972 C15.6103897,0.547185428 14.4119283,0.0284548476 13.1316754,0.0284548476 C12.1303747,0.0284548476 11.1028146,0.350024759 10.077407,0.98304826 C9.02294177,1.63372151 8.21320549,2.45142171 7.42994383,3.24243204 C7.20480185,3.47037215 6.98396468,3.69293125 6.76377323,3.90494354 C6.24116832,4.41484924 5.77172791,4.80895534 5.33005357,5.1081402 C4.86255032,5.4191633 4.36577432,5.69725455 3.85500765,5.93445003 C2.8623166,6.39463508 1.99231286,6.62365141 1.42515308,6.75559408 C0.826998604,6.89119585 0.47163587,6.9230515 0.461519548,6.92412771 C0.125743736,6.96954354 0.0579428515,7.02184708 0.0405083382,7.11504639 L0.0353425565,7.22632594 L0.119716991,7.27324846 C0.229059371,7.33394639 0.431385821,7.34406271 0.482182675,7.33846645" id="Fill-7" fill="#FFFFFF" mask="url(#mask-2)"></path>
                </g>
                <polygon id="Fill-10" fill="#FFFFFF" points="5.2217013 11.6926393 9.01166315 20.0261214 9.51597259 20.0261214 13.4008557 11.7569963 13.4008557 20.0261214 15.3380238 20.0261214 15.3380238 9.47931706 13.3971966 9.47931706 9.72109717 17.2587691 5.97590543 9.47931706 4.14549677 9.47931706 4.14549677 20.0261214 5.2217013 20.0261214"></polygon>
                <polygon id="Fill-12" fill="#FFFFFF" points="25.4543463 18.9499814 20.2885646 18.9499814 20.2885646 14.4299224 23.7324191 14.4299224 23.7324191 13.3537179 20.2885646 13.3537179 20.2885646 10.1251043 25.4543463 10.1251043 25.4543463 9.47938163 18.5666374 9.47938163 18.5666374 20.026186 25.4543463 20.026186"></polygon>
                <polygon id="Fill-14" fill="#FFFFFF" points="27.8547775 20.026186 31.4288527 15.6184827 34.592033 20.026186 36.8742323 20.026186 32.6326951 14.1350424 36.403931 9.47938163 35.1914789 9.47938163 32.0717773 13.3337005 29.3080841 9.47938163 27.0332029 9.47938163 30.8681501 14.8180018 26.6494284 20.026186"></polygon>
                <polygon id="Fill-16" fill="#FFFFFF" points="38.7993255 20.026229 40.7364936 20.026229 40.7364936 9.47942468 38.7993255 9.47942468"></polygon>
                <path d="M51.6706455,9.88422825 C51.3008616,9.63584025 50.8878143,9.43329855 50.4424809,9.28327564 C49.9943493,9.13153081 49.4986495,9.0546898 48.9689416,9.0546898 C48.4131896,9.0546898 47.8830513,9.12356689 47.3942392,9.25873818 C46.9060728,9.39326375 46.4489011,9.58504339 46.0362843,9.82826561 C45.6245285,10.0719183 45.2489331,10.368305 44.9204755,10.7092466 C44.5920178,11.0497577 44.3111285,11.4296579 44.0844798,11.8386157 C43.8589073,12.2467124 43.682625,12.6881715 43.5614444,13.1520157 C43.4398333,13.6149988 43.3787049,14.0986452 43.3787049,14.5891792 C43.3787049,15.0799284 43.4391875,15.5620681 43.5582158,16.0224684 C43.6761678,16.4822229 43.8485758,16.9202382 44.0698434,17.3244606 C44.2924025,17.7291135 44.5674804,18.1040632 44.8884046,18.438978 C45.2101897,18.7760453 45.5801888,19.0676967 45.9878551,19.3055379 C46.3948757,19.54424 46.847312,19.7325758 47.332465,19.864949 C47.8178333,19.9977526 48.3402229,20.0646926 48.8852129,20.0646926 C49.4553861,20.0646926 49.9801434,19.988282 50.4446333,19.8373982 C50.9065403,19.6867295 51.3277667,19.4841878 51.6953982,19.2347236 C52.0638906,18.9856899 52.392133,18.6938232 52.6704395,18.367518 C52.9461631,18.0446567 53.1902463,17.7037151 53.3940794,17.3535181 L53.4573602,17.2452519 L52.5397882,16.6238515 L52.4726331,16.763758 C52.3366008,17.0448627 52.1622557,17.3255368 51.9547635,17.5988928 C51.7468407,17.8718182 51.5087843,18.1195605 51.244899,18.3350166 C50.9844575,18.5493966 50.6971109,18.7265399 50.3914688,18.8617111 C50.0927144,18.9934386 49.7786779,19.059948 49.4590452,19.059948 C48.9063065,19.059948 48.385854,18.9587848 47.9125393,18.7577498 C47.4413769,18.5575757 47.0272534,18.2642024 46.6826527,17.8845174 C46.3371911,17.504402 46.0612522,17.0323787 45.8632306,16.4820077 C45.6645633,15.9296995 45.5631848,15.2930169 45.5631848,14.5891792 C45.5631848,13.8857719 45.6662852,13.2469369 45.8699031,12.6903239 C46.0730905,12.1345719 46.3535494,11.6558761 46.7039616,11.2677968 C47.0532976,10.8812241 47.4689278,10.5798869 47.9387987,10.3721794 C48.4091,10.1646871 48.9222344,10.0594343 49.4661481,10.0594343 C50.0853962,10.0594343 50.6417939,10.2460482 51.1187678,10.6136797 C51.6039208,10.9866922 52.0524828,11.5861381 52.4519699,12.3943677 L52.5212775,12.53492 L53.4558535,11.8717628 L53.3940794,11.7658642 C53.1893853,11.4158825 52.9422887,11.0738647 52.6586012,10.7510034 C52.3729765,10.4244829 52.0406446,10.133262 51.6706455,9.88422825" id="Fill-18" fill="#FFFFFF"></path>
                <polygon id="Fill-19" fill="#FFFFFF" points="67.8568045 11.8873893 74.7023263 20.0262936 75.1749953 20.0262936 75.1749953 9.47927401 74.3140317 9.47927401 74.3140317 16.6349579 68.0337326 9.47927401 67.2110818 9.47927401 67.2110818 20.0262936 67.8568045 20.0262936"></polygon>
                <path d="M53.9891129,28.016488 C52.9355086,27.8447257 52.0205196,28.6792147 51.6851742,29.6398349 C51.3339011,30.6503909 51.8351971,31.5677476 52.0883204,32.5331031 C52.5818678,34.4179677 52.7013265,37.4825677 50.2540375,38.0176566 C49.1647032,38.2563588 48.9100732,37.0652156 49.2731846,36.2582774 C49.4279429,35.914753 49.8681105,35.5858649 49.9229969,35.208978 C50.016842,34.5606724 49.2307822,34.7205964 48.909858,35.0658428 C48.6085207,35.3904261 48.3749844,35.7608557 48.2150604,36.1661543 C47.7766146,37.2789498 48.2987891,38.3381503 49.4094321,38.6960959 C50.7471544,39.1270082 51.8498335,38.4309191 52.6763586,37.40422 C53.6787355,36.1596971 53.2424422,34.6332086 53.1485971,33.1941079 C53.1266426,32.8598388 53.1182482,32.5236325 53.1277188,32.1887177 C53.1421399,31.6747224 53.1929368,31.1465212 53.3670667,30.6596463 C53.5980201,30.0100492 53.9884671,29.6617894 54.5265694,29.6241223 L54.5681109,29.6226156 C54.7248063,29.6226156 54.8573947,29.6861117 54.961356,29.8128886 C55.0642412,29.9385892 55.1234324,30.0978675 55.1367774,30.2883557 C55.1428041,30.3697168 55.1324726,30.4639923 55.105137,30.5757023 C55.0805995,30.6749284 55.0532639,30.7732935 55.0222692,30.872089 L54.9396167,31.1351134 C54.9099135,31.2274518 54.9112049,31.2554331 54.9112049,31.2584465 C54.938971,31.3794119 54.9964403,31.3921111 55.0470219,31.392972 C55.0937292,31.3893129 55.1673416,31.3305522 55.2433216,31.2274518 C55.3369514,31.0998139 55.4249849,30.9383832 55.5050546,30.7463884 C55.5862004,30.5546087 55.6514184,30.3372154 55.6994171,30.1006656 C55.779702,29.7041919 55.6682072,29.3189107 55.4501681,28.9883006 C55.1146076,28.4805474 54.5250627,28.10323 53.9891129,28.016488" id="Fill-20" fill="#FFFFFF"></path>
                <path d="M91.8422824,13.8571449 C91.3588513,13.026315 90.6797662,12.5783987 90.1072254,12.2542458 C89.5224159,11.936335 89.0036853,11.736161 88.5775083,11.5977611 C87.7227867,11.32871 87.2509786,11.2585414 87.2509786,11.2585414 C87.2509786,11.2585414 87.1571336,11.2550976 87.1401296,11.3362434 C87.1117178,11.4735671 87.384428,11.5157543 87.4733225,11.546749 C87.6577839,11.6108908 87.8396625,11.6894537 88.0172362,11.7712453 C88.1552057,11.8349566 88.2940361,11.8965155 88.4304988,11.9634554 C88.8179324,12.1539436 89.2923234,12.4010401 89.7886689,12.759201 C90.2729609,13.1171466 90.8218252,13.5891699 91.0971184,14.2286507 C91.3790839,14.859737 91.2615624,15.6158783 90.7568225,16.3431773 C90.5202727,16.7043516 90.1877255,17.0702611 89.8317171,17.3890329 C89.6334802,17.5681133 89.43223,17.763552 89.2367912,17.8963557 C89.0426439,18.0474548 88.8426851,18.1989844 88.608503,18.3345862 C87.7124551,18.9077727 86.6362506,19.3345954 85.4644791,19.7071774 C84.2761341,20.0444599 82.9973879,20.3294389 81.6321148,20.532411 C78.9129765,20.9809731 75.8980971,21.1904025 72.7058593,21.3815364 C69.5110385,21.5647064 66.1276667,21.759069 62.6185943,21.883263 C59.1019884,22.0111161 55.466139,22.0929076 51.774327,22.1348796 C50.8511588,22.1434892 49.9241162,22.1520988 48.9953517,22.1609237 C48.0650805,22.1637219 47.1326569,22.1663047 46.1982961,22.1691029 C44.3291441,22.1604932 42.4513825,22.1505922 40.5742665,22.1637219 C38.6958592,22.154897 36.8178823,22.1818021 34.9459321,22.1966537 C33.0752734,22.2427153 31.2108567,22.2829653 29.3627983,22.3824066 C25.66539,22.5612718 22.028034,22.8126732 18.5066928,23.1755693 C17.6270032,23.2564999 16.7522642,23.3563717 15.8893634,23.4771219 C15.4578054,23.5348064 15.0281845,23.59163 14.6005009,23.6488841 C14.1728172,23.7181917 13.7477164,23.7879297 13.3243375,23.8570221 C12.9013892,23.9263296 12.4808084,23.9943458 12.0623801,24.0630076 C11.644167,24.1480278 11.2283216,24.2326174 10.8148438,24.3169919 C10.402227,24.4088997 9.99283881,24.4891846 9.58538778,24.5899173 C9.17793674,24.7024883 8.77285336,24.8139831 8.37099859,24.9254779 C6.77369584,25.3587578 5.19662573,25.9963014 3.82037539,26.8557583 C2.44972131,27.726623 1.19271442,28.8331765 0.453577158,30.3377105 C0.0988601475,31.0891164 -0.0849555851,31.9675146 0.0381622124,32.8291239 C0.171181091,33.690518 0.620819341,34.4755016 1.20756605,34.9918645 C2.90495582,36.4869279 5.21126211,36.7960138 7.39165248,36.6879629 C7.88476939,36.6636406 13.4440115,36.0263123 13.2970019,35.5295363 C13.1747451,35.116489 12.2989299,35.2761978 12.0333226,35.3293623 C10.7110977,35.5930324 9.35120567,35.7536021 8.00207568,35.7697452 C7.60474097,35.7746957 7.20676054,35.7647946 6.81028679,35.7353066 C6.36021806,35.7028052 5.91165602,35.6446902 5.47019692,35.5508452 C4.45469033,35.3338823 3.26677578,34.8013763 2.46349673,34.105072 C2.06573153,33.7598256 1.70778591,33.1584425 1.66559869,32.6205555 C1.62814677,32.1427207 1.75729132,31.621192 2.02332908,31.1153758 C2.5706867,30.0964254 3.60814786,29.1997318 4.81607981,28.5081628 C5.42736398,28.1665754 6.07803724,27.8546914 6.76250331,27.580044 C7.11140882,27.4564957 7.41662042,27.3275664 7.81266369,27.2100449 L8.36088227,27.0389283 L8.9245982,26.8970846 C9.3008393,26.8019481 9.68009378,26.7059507 10.0612854,26.6093075 C10.4480733,26.5221349 10.84713,26.4536883 11.242958,26.3740492 C11.6394317,26.2937643 12.0382731,26.2126185 12.4396974,26.1312575 C12.8465027,26.0630261 13.2558909,25.99501 13.6670011,25.9269938 C14.0785417,25.8579015 14.4922347,25.7894549 14.9082953,25.7199321 C15.3275846,25.662678 15.7492416,25.6052087 16.1724052,25.5475241 C17.0204543,25.4362446 17.8721626,25.2944008 18.7406597,25.1973272 C21.1455463,24.8811383 23.6233996,24.6267235 26.1404267,24.4007206 C25.972754,25.2072282 25.7486883,26.1680636 25.4680141,27.2761238 C25.1937972,28.3732067 24.9464854,29.3228496 24.7271549,30.1211781 C24.3382146,30.1409803 23.9488438,30.1536795 23.5385947,30.1547557 C22.9793988,30.1459308 22.7949373,30.3112358 23.1754833,30.6220437 C23.5142724,30.8990587 23.9656326,31.0303557 24.4544447,31.0854574 C24.4398083,31.1364694 24.4240957,31.1907102 24.4096746,31.2400003 C23.7882741,33.3342943 23.0151288,35.9415074 21.7421941,38.0743295 C21.3433527,38.743083 20.8405499,39.3776132 20.2499289,39.9581179 C18.850002,41.3173642 17.2462421,42.0065656 15.4825581,42.0065656 C14.3506062,42.0065656 13.1626916,41.696834 11.9739161,41.098249 C11.9401233,41.0769401 11.6366336,40.8969987 11.2922482,41.0082783 C11.048165,41.0868412 10.8613359,41.2824952 10.7362809,41.5894287 C10.6019706,41.9191778 10.651476,42.1707944 10.7162635,42.3240459 C10.8600444,42.6615437 11.1813991,42.7984369 11.2332721,42.8186695 C12.0720659,43.0948236 13.046892,43.2347302 14.1314909,43.2347302 C15.7163097,43.2347302 17.2057768,42.931671 18.5581354,42.3343775 C19.9111397,41.737084 21.1373671,40.8354399 22.2034553,39.6541978 C24.2549164,37.3801776 25.322296,34.4324534 26.2392223,31.6099994 C26.299705,31.4283361 26.3560981,31.2455966 26.4148589,31.0628571 C26.4398268,31.0611351 26.4654405,31.0594132 26.4904084,31.0579065 C27.1897261,31.0183022 27.8987297,30.9821417 28.5963254,30.9266096 C29.6699471,30.8405132 30.6591943,30.6659528 31.7455151,30.7296641 C32.3029891,30.7158887 32.4366537,30.5523056 32.1691092,30.2851917 C31.896399,30.0256111 31.2657431,29.6857458 30.1895386,29.6545358 L30.1895386,29.6650826 L26.8078888,29.9649132 C26.8565332,29.7983167 26.8817164,29.6312898 26.9288541,29.4662 C27.132472,28.7524612 27.3124134,28.0621836 27.495153,27.3957978 C27.6778925,26.7296272 27.8853847,25.8792104 28.1260241,24.8688695 C28.1826324,24.6310283 28.2302007,24.414496 28.2769079,24.2166896 C28.6779017,24.1835425 29.0743755,24.1484582 29.4766607,24.1161721 C33.1447962,23.8251664 36.8751364,23.5001526 40.6127947,23.2388502 C42.4817314,23.1107818 44.3517444,23.0038071 46.2159459,22.9015677 C48.0801474,22.8210676 49.9378916,22.7601544 51.78143,22.7341103 C55.4704438,22.6727666 59.0987598,22.7610154 62.6101999,22.9280423 C66.1304649,23.0905492 69.5439704,23.2095774 72.7865746,23.1021722 C76.0285331,22.9960584 79.0980836,22.6962279 81.9196767,22.1768516 C83.3292893,21.9192082 84.6713164,21.557173 85.9330586,21.1441257 C87.1898502,20.7020209 88.3540883,20.131202 89.3463488,19.414665 C89.5971045,19.2469924 89.8351609,19.0463878 90.0643925,18.8412633 C90.3101976,18.6387216 90.4886323,18.4450047 90.6720176,18.2506422 C91.075379,17.8212366 91.4072805,17.3896786 91.6774078,16.900436 C91.9451675,16.420664 92.1401758,15.8928933 92.1774125,15.3476881 C92.2198149,14.8029134 92.0745273,14.2712684 91.8422824,13.8571449" id="Fill-21" fill="#FFFFFF"></path>
                <path d="M65.7920416,36.1843852 C64.9278494,36.1645831 65.2156264,34.4730048 66.3899808,32.8186632 C67.6078139,31.1068523 69.2253493,29.8571636 69.9337071,29.9146329 C70.5759859,29.9723175 70.3771033,31.1649673 68.9812661,33.2801397 C67.8516818,34.9723637 66.6997125,36.2033264 65.7920416,36.1843852 M73.5222034,33.645834 C73.4337394,33.4723498 73.2781203,33.491291 73.1683474,33.66456 C72.3928344,34.9917354 71.1745709,36.2999696 70.2653933,36.3382825 C69.5131263,36.3770258 69.5352962,35.5496398 70.089111,34.4730048 C70.620756,33.4534086 71.7279553,32.0108641 72.2152607,31.1458109 C72.7471209,30.1834688 72.5697624,29.3567285 72.2380762,29.0106211 C72.0831027,28.8375674 71.9053138,28.8767413 71.7062159,29.1264207 C71.4625632,29.4337847 71.1969559,29.8380072 70.9085331,30.2996989 C70.9533032,29.5493691 70.5105527,28.9146237 69.557466,28.9146237 C68.4498363,28.9146237 66.6997125,29.7798921 64.9058948,32.0493922 C63.0670917,34.3767921 63.4881029,36.8187002 65.5479584,36.8187002 C66.611679,36.8187002 67.6078139,36.1075442 68.3174631,35.3189016 C68.3174631,36.2224829 68.936496,36.8376414 70.1334506,36.8955412 C71.3512837,36.953441 72.7471209,35.8959624 73.3224599,34.8386991 C73.6110979,34.2993054 73.6110979,33.8188877 73.5222034,33.645834" id="Fill-22" fill="#FFFFFF"></path>
                <path d="M42.5355201,32.5109979 C43.5764252,30.6838178 45.4152282,29.5299113 45.8803638,29.8570775 C46.1905259,30.0684441 45.7032205,31.0686686 44.9940017,31.8764677 C44.3519381,32.6072105 43.4438368,33.4341661 42.3585921,32.8383793 C42.4029317,32.7417361 42.4690107,32.6265822 42.5355201,32.5109979 M47.9402193,33.5878481 C47.8519705,33.4150097 47.674612,33.4150097 47.5633324,33.5686917 C46.6113219,34.838613 44.9940017,36.3769398 43.1558444,36.3000987 C41.9819205,36.2424142 41.4502755,35.0303927 42.1588486,33.2608972 C43.709444,34.3571191 45.1937453,33.857545 46.2787747,32.703208 C47.2094764,31.7223552 47.3864044,30.5492923 46.9882087,30.0878158 C46.6334917,29.6644369 46.2348656,29.3764446 45.6810507,29.088237 C44.573421,28.5303326 42.3140372,29.5299113 40.8745061,32.0109932 C39.4345444,34.4918599 40.40894,36.8954551 43.2223539,36.856927 C44.9277075,36.8377705 46.6334917,35.9533457 47.5633324,34.7802827 C47.9626043,34.2800629 48.0286833,33.7415301 47.9402193,33.5878481" id="Fill-23" fill="#FFFFFF"></path>
                <path d="M57.9637084,15.2908861 L59.5737103,11.6965782 L61.1415251,15.2908861 L57.9637084,15.2908861 Z M60.3001484,9.47938163 L59.7196437,9.47938163 L54.9059961,20.026186 L56.0177153,20.026186 L57.5569031,16.3670906 L61.5593077,16.3670906 L63.04899,20.026186 L65.0068212,20.026186 L60.3001484,9.47938163 Z" id="Fill-24" fill="#FFFFFF"></path>
            </g>
        </g>
    </g>
</svg>